<?xml version="1.0" encoding="utf-8"?>
<svg viewBox="0 0 500 500" xmlns="http://www.w3.org/2000/svg">
  <defs>
    <linearGradient id="paint12_linear_0_1" x1="351" y1="842.852" x2="370.497" y2="881.207" gradientUnits="userSpaceOnUse">
      <stop stop-color="#09C6F9"/>
      <stop offset="1" stop-color="#045DE9"/>
    </linearGradient>
    <linearGradient id="paint13_linear_0_1" x1="391" y1="842.852" x2="410.497" y2="881.207" gradientUnits="userSpaceOnUse">
      <stop stop-color="#09C6F9"/>
      <stop offset="1" stop-color="#045DE9"/>
    </linearGradient>
    <linearGradient id="paint14_linear_0_1" x1="311" y1="842.852" x2="330.497" y2="881.207" gradientUnits="userSpaceOnUse">
      <stop stop-color="#09C6F9"/>
      <stop offset="1" stop-color="#045DE9"/>
    </linearGradient>
    <linearGradient id="paint15_linear_0_1" x1="271" y1="842.852" x2="290.497" y2="881.207" gradientUnits="userSpaceOnUse">
      <stop stop-color="#09C6F9"/>
      <stop offset="1" stop-color="#045DE9"/>
    </linearGradient>
  </defs>
  <circle cx="367" cy="859" r="16" fill="#FCA311" transform="matrix(3.177095, 0, 0, 3.245207, -853.254969, -2700.205891)" style=""/>
  <circle cx="367" cy="859" r="16" fill="url(#paint12_linear_0_1)" transform="matrix(3.177095, 0, 0, 3.245207, -853.254969, -2700.205891)" style=""/>
  <path d="M 297.467 100.407 L 297.467 90.71 L 288.508 73.147 L 294.035 73.147 L 299.945 85.726 L 305.817 73.147 L 311.268 73.147 L 302.347 90.71 L 302.347 100.407 L 297.467 100.407 Z M 320.609 100.407 L 320.609 77.159 L 312.831 77.159 L 312.831 73.147 L 333.305 73.147 L 333.305 77.159 L 325.489 77.159 L 325.489 100.407 L 320.609 100.407 Z" fill="white" style=""/>
  <circle cx="407" cy="859" r="16" fill="#FCA311" transform="matrix(3.177095, 0, 0, 3.245207, -853.254969, -2700.205891)" style=""/>
  <circle cx="407" cy="859" r="16" fill="url(#paint13_linear_0_1)" transform="matrix(3.177095, 0, 0, 3.245207, -853.254969, -2700.205891)" style=""/>
  <path d="M 426.889 100.407 L 426.889 73.147 L 431.769 73.147 L 431.769 96.513 L 443.588 96.513 L 443.588 100.407 L 426.889 100.407 Z M 447.89 100.407 L 447.89 73.147 L 452.769 73.147 L 452.769 100.407 L 447.89 100.407 Z" fill="white" style=""/>
  <circle cx="327" cy="859" r="16" fill="#FCA311" transform="matrix(3.177095, 0, 0, 3.245207, -853.254969, -2700.205891)" style=""/>
  <circle cx="327" cy="859" r="16" fill="url(#paint14_linear_0_1)" transform="matrix(3.177095, 0, 0, 3.245207, -853.254969, -2700.205891)" style=""/>
  <path d="M 166.008 100.407 L 166.008 73.147 L 170.888 73.147 L 170.888 100.407 L 166.008 100.407 Z M 187.728 100.874 C 185.211 100.874 183.012 100.29 181.131 99.122 C 179.25 97.953 177.789 96.331 176.746 94.254 C 175.705 92.151 175.184 89.711 175.184 86.933 C 175.184 84.129 175.717 81.663 176.785 79.534 C 177.878 77.378 179.415 75.704 181.399 74.51 C 183.406 73.289 185.782 72.68 188.527 72.68 C 191.654 72.68 194.247 73.445 196.305 74.978 C 198.364 76.509 199.698 78.625 200.309 81.325 L 194.856 81.325 C 194.449 80.053 193.712 79.067 192.645 78.366 C 191.577 77.638 190.205 77.275 188.527 77.275 C 185.858 77.275 183.8 78.145 182.351 79.884 C 180.903 81.598 180.178 83.961 180.178 86.972 C 180.178 89.983 180.889 92.32 182.313 93.981 C 183.762 95.617 185.719 96.435 188.184 96.435 C 190.6 96.435 192.416 95.772 193.637 94.448 C 194.881 93.099 195.631 91.333 195.885 89.153 L 189.137 89.153 L 189.137 85.414 L 200.803 85.414 L 200.803 100.407 L 196.305 100.407 L 195.924 96.825 C 195.059 98.122 193.98 99.122 192.683 99.823 C 191.387 100.523 189.734 100.874 187.728 100.874 Z" fill="white" style=""/>
  <circle cx="287" cy="859" r="16" fill="#FCA311" transform="matrix(3.177095, 0, 0, 3.245207, -853.254969, -2700.205891)" style=""/>
  <circle cx="287" cy="859" r="16" fill="url(#paint15_linear_0_1)" transform="matrix(3.177095, 0, 0, 3.245207, -853.254969, -2700.205891)" style=""/>
  <path d="M 35.747 100.407 L 35.747 73.147 L 52.98 73.147 L 52.98 77.159 L 40.628 77.159 L 40.628 84.791 L 50.616 84.791 L 50.616 88.725 L 40.628 88.725 L 40.628 100.407 L 35.747 100.407 Z M 56.745 100.407 L 56.745 73.147 L 67.458 73.147 C 70.229 73.147 72.338 73.809 73.787 75.133 C 75.26 76.432 75.998 78.106 75.998 80.157 C 75.998 81.871 75.541 83.247 74.626 84.286 C 73.735 85.297 72.642 85.985 71.347 86.348 C 72.872 86.66 74.13 87.439 75.122 88.685 C 76.112 89.905 76.608 91.333 76.608 92.97 C 76.608 95.124 75.845 96.902 74.32 98.304 C 72.795 99.706 70.634 100.407 67.839 100.407 L 56.745 100.407 Z M 61.625 84.596 L 66.733 84.596 C 68.107 84.596 69.161 84.271 69.898 83.623 C 70.634 82.974 71.004 82.052 71.004 80.858 C 71.004 79.715 70.634 78.82 69.898 78.171 C 69.186 77.497 68.107 77.159 66.657 77.159 L 61.625 77.159 L 61.625 84.596 Z M 61.625 96.357 L 67.076 96.357 C 68.525 96.357 69.644 96.02 70.432 95.344 C 71.245 94.644 71.652 93.67 71.652 92.423 C 71.652 91.152 71.233 90.152 70.394 89.425 C 69.555 88.698 68.423 88.335 67 88.335 L 61.625 88.335 L 61.625 96.357 Z" fill="white" style=""/>
</svg>