<?xml version="1.0" encoding="utf-8"?>
<svg viewBox="0 0 500 500" xmlns="http://www.w3.org/2000/svg">
  <defs>
    <linearGradient id="paint9_linear_0_1" x1="760" y1="768.778" x2="789.245" y2="826.311" gradientUnits="userSpaceOnUse" gradientTransform="matrix(8.680852, 0, 0, 8.235168, -6567.281028, -6268.800566)">
      <stop stop-color="#09C6F9"/>
      <stop offset="1" stop-color="#045DE9"/>
    </linearGradient>
  </defs>
  <path fill-rule="evenodd" clip-rule="evenodd" d="M 169.746 71.596 C 214.973 61.524 262.042 61.524 307.268 71.596 C 372.573 86.122 423.574 134.503 438.887 196.457 C 449.503 239.362 449.503 284.013 438.887 326.919 C 423.574 388.871 372.573 437.253 307.268 451.781 C 262.042 461.852 214.973 461.852 169.746 451.781 C 104.439 437.253 53.441 388.871 38.127 326.919 C 27.51 284.013 27.51 239.362 38.127 196.457 C 53.441 134.503 104.439 86.122 169.746 71.596 Z M 272.996 218.042 C 280.236 215.291 287.415 222.102 284.523 228.97 L 266.46 271.809 C 263.309 279.287 257.058 285.208 249.176 288.205 L 204.018 305.334 C 196.786 308.086 189.599 301.275 192.499 294.406 L 210.563 251.566 C 213.715 244.089 219.956 238.168 227.847 235.171 L 272.996 218.042 Z M 309.213 238.341 C 320.793 210.877 292.068 183.635 263.126 194.612 L 217.968 211.75 C 203.323 217.308 191.727 228.312 185.866 242.204 L 167.81 285.035 C 156.23 312.499 184.955 339.741 213.896 328.764 L 259.055 311.627 C 273.69 306.067 285.297 295.065 291.148 281.173 L 309.213 238.341 Z" fill="#FCA311" style=""/>
  <path fill-rule="evenodd" clip-rule="evenodd" d="M 169.746 71.596 C 214.973 61.524 262.042 61.524 307.268 71.596 C 372.573 86.122 423.574 134.503 438.887 196.457 C 449.503 239.362 449.503 284.013 438.887 326.919 C 423.574 388.871 372.573 437.253 307.268 451.781 C 262.042 461.852 214.973 461.852 169.746 451.781 C 104.439 437.253 53.441 388.871 38.127 326.919 C 27.51 284.013 27.51 239.362 38.127 196.457 C 53.441 134.503 104.439 86.122 169.746 71.596 Z M 272.996 218.042 C 280.236 215.291 287.415 222.102 284.523 228.97 L 266.46 271.809 C 263.309 279.287 257.058 285.208 249.176 288.205 L 204.018 305.334 C 196.786 308.086 189.599 301.275 192.499 294.406 L 210.563 251.566 C 213.715 244.089 219.956 238.168 227.847 235.171 L 272.996 218.042 Z M 309.213 238.341 C 320.793 210.877 292.068 183.635 263.126 194.612 L 217.968 211.75 C 203.323 217.308 191.727 228.312 185.866 242.204 L 167.81 285.035 C 156.23 312.499 184.955 339.741 213.896 328.764 L 259.055 311.627 C 273.69 306.067 285.297 295.065 291.148 281.173 L 309.213 238.341 Z" fill="url(#paint9_linear_0_1)" style=""/>
</svg>