<?xml version="1.0" encoding="utf-8"?>
<svg viewBox="0 0 500 500" xmlns="http://www.w3.org/2000/svg">
  <defs>
    <linearGradient id="gradient-1" x1="639" y1="866.778" x2="668.245" y2="924.311" gradientUnits="userSpaceOnUse" gradientTransform="matrix(7.88264, 0, 0, 8.314741, -4988.60825, -7166.708138)">
      <stop stop-color="#09C6F9"/>
      <stop offset="1" stop-color="#045DE9"/>
    </linearGradient>
    <linearGradient id="gradient-2" x1="639" y1="866.778" x2="668.245" y2="924.311" gradientUnits="userSpaceOnUse" gradientTransform="matrix(7.88264, 0, 0, 8.314741, -4988.60825, -7166.708138)">
      <stop stop-color="#09C6F9"/>
      <stop offset="1" stop-color="#045DE9"/>
    </linearGradient>
    <linearGradient id="gradient-3" x1="639" y1="866.778" x2="668.245" y2="924.311" gradientUnits="userSpaceOnUse" gradientTransform="matrix(7.88264, 0, 0, 8.314741, -4988.60825, -7166.708138)">
      <stop stop-color="#09C6F9"/>
      <stop offset="1" stop-color="#045DE9"/>
    </linearGradient>
    <linearGradient id="gradient-4" x1="639" y1="866.778" x2="668.245" y2="924.311" gradientUnits="userSpaceOnUse" gradientTransform="matrix(7.88264, 0, 0, 8.314741, -4988.60825, -7166.708138)">
      <stop stop-color="#09C6F9"/>
      <stop offset="1" stop-color="#045DE9"/>
    </linearGradient>
  </defs>
  <path d="M 157.517 45.633 C 138.883 41.02 119.491 41.02 100.856 45.633 C 76.452 51.671 57.399 71.767 51.676 97.509 C 47.301 117.166 47.301 137.621 51.676 157.276 C 57.399 183.018 76.452 203.123 100.856 209.159 C 119.491 213.766 138.883 213.766 157.517 209.159 C 181.921 203.123 200.981 183.018 206.704 157.276 C 211.071 137.621 211.071 117.166 206.704 97.509 C 200.981 71.767 181.921 51.671 157.517 45.633 Z" fill="#FCA311" style=""/>
  <path d="M 157.517 45.633 C 138.883 41.02 119.491 41.02 100.856 45.633 C 76.452 51.671 57.399 71.767 51.676 97.509 C 47.301 117.166 47.301 137.621 51.676 157.276 C 57.399 183.018 76.452 203.123 100.856 209.159 C 119.491 213.766 138.883 213.766 157.517 209.159 C 181.921 203.123 200.981 183.018 206.704 157.276 C 211.071 137.621 211.071 117.166 206.704 97.509 C 200.981 71.767 181.921 51.671 157.517 45.633 Z" fill="url(#gradient-1)" style=""/>
  <path d="M 157.517 274.298 C 138.883 269.692 119.491 269.692 100.856 274.298 C 76.452 280.334 57.399 300.439 51.676 326.181 C 47.301 345.838 47.301 366.293 51.676 385.948 C 57.399 411.69 76.452 431.786 100.856 437.824 C 119.491 442.438 138.883 442.438 157.517 437.824 C 181.921 431.786 200.981 411.69 206.704 385.948 C 211.071 366.293 211.071 345.838 206.704 326.181 C 200.981 300.439 181.921 280.334 157.517 274.298 Z" fill="#FCA311" style=""/>
  <path d="M 157.517 274.298 C 138.883 269.692 119.491 269.692 100.856 274.298 C 76.452 280.334 57.399 300.439 51.676 326.181 C 47.301 345.838 47.301 366.293 51.676 385.948 C 57.399 411.69 76.452 431.786 100.856 437.824 C 119.491 442.438 138.883 442.438 157.517 437.824 C 181.921 431.786 200.981 411.69 206.704 385.948 C 211.071 366.293 211.071 345.838 206.704 326.181 C 200.981 300.439 181.921 280.334 157.517 274.298 Z" fill="url(#gradient-2)" style=""/>
  <path d="M 374.305 45.633 C 355.671 41.02 336.279 41.02 317.645 45.633 C 293.241 51.671 274.179 71.767 268.457 97.509 C 264.089 117.166 264.089 137.621 268.457 157.276 C 274.179 183.018 293.241 203.123 317.645 209.159 C 336.279 213.766 355.671 213.766 374.305 209.159 C 398.71 203.123 417.761 183.018 423.484 157.276 C 427.859 137.621 427.859 117.166 423.484 97.509 C 417.761 71.767 398.71 51.671 374.305 45.633 Z" fill="#FCA311" style=""/>
  <path d="M 374.305 45.633 C 355.671 41.02 336.279 41.02 317.645 45.633 C 293.241 51.671 274.179 71.767 268.457 97.509 C 264.089 117.166 264.089 137.621 268.457 157.276 C 274.179 183.018 293.241 203.123 317.645 209.159 C 336.279 213.766 355.671 213.766 374.305 209.159 C 398.71 203.123 417.761 183.018 423.484 157.276 C 427.859 137.621 427.859 117.166 423.484 97.509 C 417.761 71.767 398.71 51.671 374.305 45.633 Z" fill="url(#gradient-3)" style=""/>
  <path d="M 374.305 274.298 C 355.671 269.692 336.279 269.692 317.645 274.298 C 293.241 280.334 274.179 300.439 268.457 326.181 C 264.089 345.838 264.089 366.293 268.457 385.948 C 274.179 411.69 293.241 431.786 317.645 437.824 C 336.279 442.438 355.671 442.438 374.305 437.824 C 398.71 431.786 417.761 411.69 423.484 385.948 C 427.859 366.293 427.859 345.838 423.484 326.181 C 417.761 300.439 398.71 280.334 374.305 274.298 Z" fill="#FCA311" style=""/>
  <path d="M 374.305 274.298 C 355.671 269.692 336.279 269.692 317.645 274.298 C 293.241 280.334 274.179 300.439 268.457 326.181 C 264.089 345.838 264.089 366.293 268.457 385.948 C 274.179 411.69 293.241 431.786 317.645 437.824 C 336.279 442.438 355.671 442.438 374.305 437.824 C 398.71 431.786 417.761 411.69 423.484 385.948 C 427.859 366.293 427.859 345.838 423.484 326.181 C 417.761 300.439 398.71 280.334 374.305 274.298 Z" fill="url(#gradient-4)" style=""/>
</svg>