<?xml version="1.0" encoding="utf-8"?>
<svg viewBox="0 0 500 500" xmlns="http://www.w3.org/2000/svg">
  <defs>
    <linearGradient id="paint8_linear_0_1" x1="518" y1="860.718" x2="559.936" y2="925.635" gradientUnits="userSpaceOnUse" gradientTransform="matrix(7.615161, 0, 0, 7.039283, -3894.082819, -6026.137803)">
      <stop stop-color="#09C6F9"/>
      <stop offset="1" stop-color="#045DE9"/>
    </linearGradient>
  </defs>
  <path fill-rule="evenodd" clip-rule="evenodd" d="M 301.261 347.826 L 290.615 349.994 L 290.615 363.08 C 290.615 385.515 275.354 404.598 254.061 411.672 L 254.061 446.904 C 254.061 456.392 245.875 464.08 235.785 464.08 C 225.688 464.08 217.502 456.392 217.502 446.904 L 217.502 411.672 C 196.209 404.598 180.948 385.515 180.948 363.08 L 180.948 350.951 C 179.364 350.655 177.773 350.347 176.189 350.022 L 165.406 347.826 C 112.786 337.112 71.146 299.339 57.896 250.297 C 48.125 214.158 48.125 176.3 57.896 140.161 C 71.146 91.125 112.786 53.345 165.406 42.631 L 176.189 40.435 C 213.846 32.768 252.821 32.768 290.478 40.435 L 301.261 42.631 C 353.881 53.345 395.521 91.125 408.771 140.167 C 418.541 176.3 418.541 214.158 408.771 250.297 C 395.521 299.339 353.881 337.112 301.261 347.826 Z M 254.061 355.027 C 251.938 355.183 249.82 355.309 247.695 355.414 C 237.636 355.921 227.561 355.892 217.502 355.337 L 217.502 363.08 C 217.502 372.561 225.688 380.255 235.785 380.255 C 245.875 380.255 254.061 372.561 254.061 363.08 L 254.061 355.027 Z M 254.663 127.011 C 260.969 131.748 261.997 140.4 256.948 146.319 L 227.211 181.248 L 269.901 181.248 C 275.521 181.248 280.647 184.276 283.084 189.041 C 285.513 193.8 284.826 199.453 281.316 203.577 L 232.579 260.828 C 227.531 266.755 218.331 267.712 212.026 262.975 C 205.72 258.23 204.7 249.585 209.742 243.659 L 239.479 208.73 L 196.788 208.73 C 191.168 208.73 186.044 205.704 183.613 200.945 C 181.176 196.186 181.863 190.533 185.373 186.408 L 234.11 129.157 C 239.158 123.231 248.358 122.266 254.663 127.011 Z" fill="#FCA311" style=""/>
  <path fill-rule="evenodd" clip-rule="evenodd" d="M 301.261 347.826 L 290.615 349.994 L 290.615 363.08 C 290.615 385.515 275.354 404.598 254.061 411.672 L 254.061 446.904 C 254.061 456.392 245.875 464.08 235.785 464.08 C 225.688 464.08 217.502 456.392 217.502 446.904 L 217.502 411.672 C 196.209 404.598 180.948 385.515 180.948 363.08 L 180.948 350.951 C 179.364 350.655 177.773 350.347 176.189 350.022 L 165.406 347.826 C 112.786 337.112 71.146 299.339 57.896 250.297 C 48.125 214.158 48.125 176.3 57.896 140.161 C 71.146 91.125 112.786 53.345 165.406 42.631 L 176.189 40.435 C 213.846 32.768 252.821 32.768 290.478 40.435 L 301.261 42.631 C 353.881 53.345 395.521 91.125 408.771 140.167 C 418.541 176.3 418.541 214.158 408.771 250.297 C 395.521 299.339 353.881 337.112 301.261 347.826 Z M 254.061 355.027 C 251.938 355.183 249.82 355.309 247.695 355.414 C 237.636 355.921 227.561 355.892 217.502 355.337 L 217.502 363.08 C 217.502 372.561 225.688 380.255 235.785 380.255 C 245.875 380.255 254.061 372.561 254.061 363.08 L 254.061 355.027 Z M 254.663 127.011 C 260.969 131.748 261.997 140.4 256.948 146.319 L 227.211 181.248 L 269.901 181.248 C 275.521 181.248 280.647 184.276 283.084 189.041 C 285.513 193.8 284.826 199.453 281.316 203.577 L 232.579 260.828 C 227.531 266.755 218.331 267.712 212.026 262.975 C 205.72 258.23 204.7 249.585 209.742 243.659 L 239.479 208.73 L 196.788 208.73 C 191.168 208.73 186.044 205.704 183.613 200.945 C 181.176 196.186 181.863 190.533 185.373 186.408 L 234.11 129.157 C 239.158 123.231 248.358 122.266 254.663 127.011 Z" fill="url(#paint8_linear_0_1)" style=""/>
</svg>