<?xml version="1.0" encoding="utf-8"?>
<svg viewBox="0 0 500 500" xmlns="http://www.w3.org/2000/svg">
  <defs>
    <linearGradient id="paint0_linear_0_1" x1="760" y1="866.778" x2="789.245" y2="924.311" gradientUnits="userSpaceOnUse" gradientTransform="matrix(9.096748, 0, 0, 9.158438, -6893.579853, -7910.538139)">
      <stop stop-color="#09C6F9"/>
      <stop offset="1" stop-color="#045DE9"/>
    </linearGradient>
    <linearGradient id="paint1_linear_0_1" x1="760" y1="866.778" x2="789.245" y2="924.311" gradientUnits="userSpaceOnUse" gradientTransform="matrix(9.096748, 0, 0, 9.158438, -6893.579853, -7910.538139)">
      <stop stop-color="#09C6F9"/>
      <stop offset="1" stop-color="#045DE9"/>
    </linearGradient>
    <linearGradient id="paint2_linear_0_1" x1="760" y1="866.778" x2="789.245" y2="924.311" gradientUnits="userSpaceOnUse" gradientTransform="matrix(9.096748, 0, 0, 9.158438, -6893.579853, -7910.538139)">
      <stop stop-color="#09C6F9"/>
      <stop offset="1" stop-color="#045DE9"/>
    </linearGradient>
    <linearGradient id="paint3_linear_0_1" x1="760" y1="866.778" x2="789.245" y2="924.311" gradientUnits="userSpaceOnUse" gradientTransform="matrix(9.096748, 0, 0, 9.158438, -6893.579853, -7910.538139)">
      <stop stop-color="#09C6F9"/>
      <stop offset="1" stop-color="#045DE9"/>
    </linearGradient>
  </defs>
  <path d="M 220.852 29.827 L 220.852 161.764 L 32.484 161.764 C 52.38 100.054 102.876 52.752 166.216 37.758 C 184.229 33.49 202.504 30.853 220.852 29.827 Z" fill="#FCA311" style=""/>
  <path d="M 220.852 29.827 L 220.852 161.764 L 32.484 161.764 C 52.38 100.054 102.876 52.752 166.216 37.758 C 184.229 33.49 202.504 30.853 220.852 29.827 Z" fill="url(#paint0_linear_0_1)" style=""/>
  <path d="M 255.692 29.827 L 255.692 302.345 L 452.236 302.345 C 459.16 260.757 457.83 218.125 448.252 176.931 C 432.206 107.875 378.762 53.951 310.328 37.758 C 292.324 33.49 274.04 30.853 255.692 29.827 Z" fill="#FCA311" style=""/>
  <path d="M 255.692 29.827 L 255.692 302.345 L 452.236 302.345 C 459.16 260.757 457.83 218.125 448.252 176.931 C 432.206 107.875 378.762 53.951 310.328 37.758 C 292.324 33.49 274.04 30.853 255.692 29.827 Z" fill="url(#paint1_linear_0_1)" style=""/>
  <path d="M 444.058 337.497 L 255.692 337.497 L 255.692 469.432 C 274.04 468.406 292.324 465.769 310.328 461.501 C 373.668 446.51 424.164 399.206 444.058 337.497 Z" fill="#FCA311" style=""/>
  <path d="M 444.058 337.497 L 255.692 337.497 L 255.692 469.432 C 274.04 468.406 292.324 465.769 310.328 461.501 C 373.668 446.51 424.164 399.206 444.058 337.497 Z" fill="url(#paint2_linear_0_1)" style=""/>
  <path d="M 220.852 469.432 L 220.852 196.914 L 24.308 196.914 C 17.384 238.502 18.712 281.134 28.292 322.33 C 44.338 391.384 97.782 445.309 166.216 461.501 C 184.229 465.769 202.504 468.406 220.852 469.432 Z" fill="#FCA311" style=""/>
  <path d="M 220.852 469.432 L 220.852 196.914 L 24.308 196.914 C 17.384 238.502 18.712 281.134 28.292 322.33 C 44.338 391.384 97.782 445.309 166.216 461.501 C 184.229 465.769 202.504 468.406 220.852 469.432 Z" fill="url(#paint3_linear_0_1)" style=""/>
</svg>