<?xml version="1.0" encoding="utf-8"?>
<svg viewBox="0 0 500 500" xmlns="http://www.w3.org/2000/svg">
  <defs>
    <linearGradient id="paint11_linear_0_1" x1="512" y1="770.792" x2="534.593" y2="830.053" gradientUnits="userSpaceOnUse" gradientTransform="matrix(7.509545, 0, 0, 6.666676, -3825.273204, -5040.007048)">
      <stop stop-color="#09C6F9"/>
      <stop offset="1" stop-color="#045DE9"/>
    </linearGradient>
  </defs>
  <path fill-rule="evenodd" clip-rule="evenodd" d="M 163.399 100 C 200.999 100 233.246 119.026 249.435 146.499 C 269.306 138.621 291.437 134.227 314.754 134.227 C 400.355 134.227 470.187 193.514 470.187 267.114 C 470.187 340.715 400.347 400 314.754 400 L 133.127 400 C 70.679 400 19.613 356.734 19.613 302.887 C 19.613 267.874 41.249 237.314 73.494 220.247 C 68.778 210 66.189 198.787 66.189 187.061 C 66.189 139.468 109.158 100 163.399 100 Z M 97.623 187.061 C 97.623 153.553 127.623 127.273 163.399 127.273 C 188.878 127.273 211.362 140.534 222.259 160.315 C 202.584 172.788 186.462 189.147 175.46 208.107 C 174.702 209.401 173.974 210.707 173.274 212.029 C 171.869 211.574 170.46 211.147 169.032 210.74 C 157.729 207.521 145.655 205.781 133.127 205.781 C 122.486 205.781 112.162 207.034 102.361 209.394 C 99.305 202.514 97.623 194.981 97.623 187.061 Z" fill="#FCA311" style=""/>
  <path fill-rule="evenodd" clip-rule="evenodd" d="M 163.399 100 C 200.999 100 233.246 119.026 249.435 146.499 C 269.306 138.621 291.437 134.227 314.754 134.227 C 400.355 134.227 470.187 193.514 470.187 267.114 C 470.187 340.715 400.347 400 314.754 400 L 133.127 400 C 70.679 400 19.613 356.734 19.613 302.887 C 19.613 267.874 41.249 237.314 73.494 220.247 C 68.778 210 66.189 198.787 66.189 187.061 C 66.189 139.468 109.158 100 163.399 100 Z M 97.623 187.061 C 97.623 153.553 127.623 127.273 163.399 127.273 C 188.878 127.273 211.362 140.534 222.259 160.315 C 202.584 172.788 186.462 189.147 175.46 208.107 C 174.702 209.401 173.974 210.707 173.274 212.029 C 171.869 211.574 170.46 211.147 169.032 210.74 C 157.729 207.521 145.655 205.781 133.127 205.781 C 122.486 205.781 112.162 207.034 102.361 209.394 C 99.305 202.514 97.623 194.981 97.623 187.061 Z" fill="url(#paint11_linear_0_1)" style=""/>
</svg>