<?xml version="1.0" encoding="utf-8"?>
<svg viewBox="0 0 500 500" xmlns="http://www.w3.org/2000/svg">
  <path d="M 446.213 194.389 C 432.857 211.91 410.404 222.319 386.944 222.319 C 348.827 222.319 314.931 193.499 314.931 155.787 C 314.931 124.678 332.113 102.367 355.761 92.097 C 362.263 89.286 369.134 87.391 376.167 86.465 C 379.741 85.989 383.342 85.75 386.944 85.751 C 396.159 85.751 405.285 87.551 413.798 91.047 C 439.027 101.373 457.385 125.706 458.661 154.035 C 459.37 169.727 454.565 183.445 446.213 194.389 Z" fill="#657285" style=""/>
  <path d="M 347.246 160.029 C 347.246 160.029 349.941 166.193 347.246 169.578 C 344.561 172.966 344.318 179.37 349.699 183.6 C 355.069 187.829 357.386 188.194 356.165 192.424 C 354.944 196.653 353.668 201.822 355.68 203.997 C 357.692 206.173 358.518 211.341 363.009 211.721 C 367.5 212.102 362.649 208.184 365.577 204.556 C 368.514 200.929 379.867 200.207 378.771 193.044 C 377.675 185.883 388.12 185.247 389.584 180.532 C 391.057 175.817 384.825 172.919 379.597 173.28 C 374.361 173.642 377.576 165.575 371.901 164.394 C 366.215 163.214 363.556 158.685 360.26 159.229 C 356.964 159.772 353.299 155.147 349.537 156.6 C 345.782 158.052 347.246 160.029 347.246 160.029 Z" fill="#B8C1C9" style=""/>
  <path d="M 337.717 110.71 C 337.717 110.71 333.81 113.73 332.723 118.566 C 331.636 123.401 326.123 126.423 325.268 133.088 C 324.415 139.752 328.295 139.915 326.921 143.542 C 325.548 147.169 327.254 148.984 331.439 150.797 C 335.624 152.611 335.993 155.397 338.462 156.315 C 340.941 157.233 340.295 159.68 341.121 159.951 C 341.948 160.224 341.579 158.098 342.441 155.317 C 343.295 152.537 344.022 151.387 340.914 151.508 C 337.798 151.628 338.768 149.15 339.989 147.581 C 341.211 146.012 338.283 145.767 337.304 146.009 C 336.325 146.248 336.576 150.723 334.556 148.606 C 332.535 146.49 331.565 144.074 333.208 141.293 C 334.861 138.514 338.399 140.812 340.914 137.487 C 343.421 134.162 346.959 135.491 347.156 138.151 C 347.354 140.812 352.347 140.87 353.201 137.367 C 354.063 133.862 353.695 127.754 358.823 126.76 C 363.961 125.764 374.047 120.685 367.625 118.6 C 361.212 116.515 363.772 112.161 360.476 112.421 C 357.18 112.68 358.464 117.59 354.791 116.128 C 351.127 114.667 348.468 110.78 353.605 109.693 C 358.743 108.605 360.845 102.986 356.901 103.346 C 352.958 103.707 352.321 99.901 349.941 100.356 C 347.552 100.81 345.081 106.535 342.612 107.969 C 340.133 109.402 337.717 110.71 337.717 110.71 Z" fill="#B8C1C9" style=""/>
  <path d="M 370.769 99.528 C 370.769 99.528 375.843 98.137 378.044 99.528 C 380.244 100.918 383.666 104.846 380.791 106.297 C 377.918 107.75 374.918 108.232 376.329 110.949 C 377.73 113.669 372.295 114.577 370.769 110.949 C 369.242 107.323 369.242 106.007 367.652 104.301 C 366.053 102.596 366.736 98.984 370.769 99.528 Z" fill="#B8C1C9" style=""/>
  <path d="M 446.213 194.389 C 425.241 188.945 442.638 180.402 435.282 170.571 C 431.096 164.973 438.551 158.23 433.782 157.304 C 431.016 156.766 424.648 163.758 420.984 157.304 C 417.31 150.849 410.754 150.815 408.841 154.721 C 406.937 158.626 398.889 161.332 393.608 158.5 C 388.337 155.667 391.39 151.888 386.818 148.922 C 382.256 145.955 381.914 141.234 386.818 137.593 C 391.731 133.949 389.477 128.688 396.842 130.307 C 404.206 131.925 402.778 115.131 402.778 115.131 C 402.662 112.192 405.536 111.689 403.901 108.951 C 402.266 106.214 397.659 108.445 395.207 102.373 C 392.755 96.302 399.096 92.659 404.206 93.253 C 405.698 93.427 409.317 92.394 413.807 91.044 C 439.045 101.369 457.404 125.703 458.679 154.032 C 459.37 169.727 454.565 183.445 446.213 194.389 Z" fill="#B8C1C9" style=""/>
  <path d="M 348.746 146.156 C 348.746 146.156 352.977 143.824 355.222 145.678 C 357.476 147.531 358.446 148.767 361.76 148.066 C 365.084 147.364 367.338 148.684 365.2 149.654 C 363.063 150.623 358.015 152.305 355.716 150.291 C 353.408 148.276 346.762 146.969 348.746 146.156 Z" fill="#B8C1C9" style=""/>
  <path d="M 365.784 153.685 C 365.784 153.685 368.783 154.214 369.484 152.994 C 370.176 151.773 368.783 152.941 367.634 152.305 C 366.485 151.668 364.284 152.305 365.784 153.685 Z" fill="#B8C1C9" style=""/>
  <path d="M 257.648 400 C 388.166 400 493.976 389.463 493.976 376.467 C 493.976 363.469 388.166 352.933 257.648 352.933 C 127.128 352.933 21.321 363.469 21.321 376.467 C 21.321 389.463 127.128 400 257.648 400 Z" fill="#EAEAEA" style=""/>
  <g opacity="0.6" transform="matrix(0.89814, 0, 0, 0.889568, -647.811604, -17.39886)" style="">
    <path d="M1139.2 319.542C1169.3 288.808 1211.54 252.51 1229.92 268.782C1252.07 288.402 1198.28 313.085 1157.83 338.363C1143.32 347.432 1120.01 339.131 1139.2 319.542Z" fill="#D5D6DA"/>
  </g>
  <path d="M 341.938 278.222 C 341.938 278.222 479.937 225.391 498.151 267.619 C 516.366 309.848 394.946 280.209 355.437 297.002 L 341.938 278.222 Z" fill="#B8C1C9" style=""/>
  <path d="M 349.402 288.78 C 376.463 276.693 409.846 272.868 433.091 271.786 C 458.283 270.615 477.297 272.331 477.485 272.346 L 477.594 271.178 C 477.413 271.16 458.31 269.438 433.036 270.612 C 409.694 271.697 376.148 275.556 348.908 287.707 L 349.402 288.78 Z" fill="white" style=""/>
  <path d="M 436.764 365.217 C 419.448 357.549 405.302 381.734 391.354 365.198 C 379.571 351.205 379.337 349.009 371.298 349.488 C 368.541 349.664 365.829 350.229 363.234 351.161 C 360.116 352.262 354.854 353.386 349.914 350.964 C 319.746 336.168 312.255 270.501 356.147 269.232 C 359.318 269.14 362.703 270.671 366.305 272.529 C 385.92 282.61 385.472 294.591 414.58 284.154 C 443.689 273.717 440.644 316.827 453.218 324.375 C 465.783 331.923 478.797 335.998 478.797 355.045 C 478.797 374.094 454.08 372.897 436.764 365.217 Z" fill="#D5D6DA" style=""/>
  <g opacity="0.5" transform="matrix(0.89814, 0, 0, 0.889568, -647.811604, -17.39886)" style="">
    <path d="M1103.77 361.147L1103.82 359.758C1104.43 359.782 1166.06 363.009 1253.83 424.359L1253.03 425.495C1165.6 364.377 1104.37 361.171 1103.77 361.147Z" fill="white"/>
    <path d="M1181.94 367.291C1178.09 348.703 1182.06 339.11 1182.24 338.71L1183.51 339.256C1183.48 339.349 1179.55 348.897 1183.3 367.01L1181.94 367.291Z" fill="white"/>
    <path d="M1175.03 380.802C1175.98 372.814 1182.25 364.936 1193.17 357.99C1198.31 354.752 1203.77 352.026 1209.44 349.852L1209.91 351.158C1209.6 351.269 1178.59 362.62 1176.41 380.969L1175.03 380.802Z" fill="white"/>
    <path d="M1199.17 395.532C1198.65 393.406 1198.47 392.131 1198.45 392.058L1199.84 391.867C1199.88 392.135 1203.91 418.958 1227.2 434.994L1226.41 436.133C1207.63 423.223 1201.11 403.461 1199.17 395.532Z" fill="white"/>
    <path d="M1191.32 429.614C1190.39 420 1193.17 413.123 1195.66 409.046C1198.38 404.607 1201.29 402.474 1201.41 402.384L1202.22 403.52C1202.11 403.6 1190.98 411.894 1192.69 429.489L1191.32 429.614Z" fill="white"/>
  </g>
  <path d="M 109.8 89.574 C 109.8 89.574 114.172 81.256 125.224 82.297 C 136.276 83.339 134.961 91.677 140.213 90.895 C 145.466 90.113 152.846 90.895 154.425 96.104 C 156.007 101.314 163.111 98.45 163.375 102.877 C 163.641 107.304 155.215 110.435 145.475 106.526 C 135.735 102.617 131.002 109.56 117.313 108.303 C 103.626 107.045 101.93 105.482 93.829 106.264 C 85.73 107.045 85.923 101.557 89.608 97.921 C 93.292 94.284 108.22 94.609 109.8 89.574 Z" fill="#EAEAEA" style=""/>
  <g opacity="0.6" transform="matrix(0.89814, 0, 0, 0.889568, -647.811604, -17.39886)" style="">
    <path d="M905.241 151.02C905.241 151.02 907.773 146.158 914.177 146.766C920.582 147.374 919.821 152.253 922.87 151.795C925.919 151.336 930.172 151.795 931.103 154.844C932.035 157.894 936.138 156.234 936.291 158.807C936.444 161.381 931.562 163.225 925.919 160.94C920.276 158.654 917.529 162.718 909.598 161.982C901.667 161.245 900.686 160.332 895.993 160.787C891.299 161.242 891.406 158.033 893.559 155.9C895.711 153.768 904.327 153.976 905.241 151.02Z" fill="#EAEAEA"/>
  </g>
  <path d="M 98.614 144.866 C 96.088 147.785 94.396 147.859 93.24 146.879 C 92.085 145.9 91.897 144.235 94.424 141.318 C 99.03 135.999 103.352 135.2 103.352 135.2 C 103.352 135.2 103.289 139.464 98.614 144.866 Z" fill="#D5D6DA" style=""/>
  <path d="M 106.662 168.482 C 105.222 172.057 103.648 172.666 102.234 172.11 C 100.819 171.554 100.098 170.036 101.535 166.464 C 104.151 159.954 107.98 157.813 107.98 157.813 C 107.98 157.813 109.316 161.876 106.662 168.482 Z" fill="#D5D6DA" style=""/>
  <path d="M 126.536 230.309 L 125.823 230.484 C 125.796 230.376 122.963 219.43 113.916 205.069 C 105.569 191.818 90.073 172.863 63.638 157.798 L 64.008 157.179 C 90.576 172.319 106.165 191.379 114.547 204.708 C 123.669 219.164 126.536 230.197 126.536 230.309 Z" fill="#D5D6DA" style=""/>
  <path d="M 92.128 177.976 L 91.413 177.803 C 97.709 152.113 80.602 129.355 80.427 129.126 L 81.015 128.688 C 81.188 128.917 98.509 151.943 92.128 177.976 Z" fill="#D5D6DA" style=""/>
  <path d="M 77.766 170.394 C 73.346 171.839 68.615 172.084 64.067 171.102 L 64.253 170.4 C 64.337 170.421 72.741 172.563 80.624 168.367 L 80.973 169.008 C 79.943 169.555 78.871 170.019 77.766 170.394 Z" fill="#D5D6DA" style=""/>
  <path d="M 119.978 215.194 C 105.129 218.457 91.147 215.503 78.425 206.438 C 78.116 206.203 77.794 205.985 77.46 205.786 C 77.488 205.792 77.516 205.792 77.544 205.786 L 77.544 205.06 C 77.763 205.06 77.944 205.181 78.862 205.838 C 91.409 214.799 105.192 217.69 119.824 214.49 L 119.978 215.194 Z" fill="#D5D6DA" style=""/>
  <path d="M 97.181 214.675 L 96.447 214.725 C 95.775 204.865 85.083 193.678 84.973 193.567 L 85.508 193.063 C 87.531 195.242 89.391 197.565 91.073 200.011 C 93.67 203.763 96.831 209.374 97.181 214.675 Z" fill="#D5D6DA" style=""/>
  <path d="M 61.864 154.134 C 66.686 156.164 67.639 157.894 67.042 159.281 C 66.446 160.668 64.544 161.188 59.704 159.158 C 50.916 155.45 47.749 151.158 47.749 151.158 C 47.749 151.158 52.946 150.384 61.864 154.134 Z" fill="#D5D6DA" style=""/>
  <path d="M 65.155 168.232 C 70.374 168.729 71.808 170.086 71.661 171.594 C 71.514 173.101 69.847 174.165 64.628 173.666 C 55.121 172.762 50.791 169.607 50.791 169.607 C 50.791 169.607 55.509 167.305 65.155 168.232 Z" fill="#D5D6DA" style=""/>
  <path d="M 86.279 190.622 C 89.089 193.28 89.068 194.949 88.015 196.045 C 86.963 197.141 85.273 197.225 82.463 194.567 C 77.347 189.723 76.78 185.41 76.78 185.41 C 76.78 185.41 81.085 185.707 86.279 190.622 Z" fill="#D5D6DA" style=""/>
  <path d="M 81.064 156.992 C 83.134 160.245 82.703 161.864 81.413 162.667 C 80.124 163.471 78.466 163.156 76.392 159.886 C 72.619 153.958 73.131 149.639 73.131 149.639 C 73.131 149.639 77.235 150.976 81.064 156.992 Z" fill="#D5D6DA" style=""/>
  <path d="M 105.122 207.893 C 106.187 211.601 105.316 213.028 103.848 213.454 C 102.38 213.881 100.878 213.102 99.816 209.401 C 97.88 202.662 99.597 198.659 99.597 198.659 C 99.597 198.659 103.158 201.056 105.122 207.893 Z" fill="#D5D6DA" style=""/>
  <path d="M 81.351 204.757 C 84.671 206.76 85.017 208.396 84.224 209.686 C 83.431 210.973 81.801 211.422 78.481 209.42 C 72.432 205.771 70.946 201.696 70.946 201.696 C 70.946 201.696 75.218 201.059 81.351 204.757 Z" fill="#D5D6DA" style=""/>
  <path d="M 81.51 125.4 C 84.321 129.774 84.121 131.733 82.837 132.544 C 81.554 133.353 79.671 132.707 76.857 128.332 C 71.726 120.362 71.573 115.047 71.573 115.047 C 71.573 115.047 76.308 117.314 81.51 125.4 Z" fill="#D5D6DA" style=""/>
  <path d="M 183.059 325.392 C 183.059 325.392 108.155 203.265 75.424 224.617 C 42.694 245.97 143.939 295.45 164.606 331.685 L 183.059 325.392 Z" fill="#D5D6DA" style=""/>
  <path d="M 148.203 303.606 C 148.203 303.606 61.993 213.136 32.413 238.889 C 2.833 264.64 106.862 285.924 130.907 313.104 L 148.203 303.606 Z" fill="#EAEAEA" style=""/>
  <path d="M 138.574 309.005 C 122.301 289.935 98.133 274.911 80.723 265.663 C 61.849 255.64 46.641 250.067 46.487 250.011 L 46.838 249.083 C 46.99 249.14 62.264 254.738 81.188 264.796 C 98.677 274.082 122.96 289.178 139.333 308.358 L 138.574 309.005 Z" fill="white" style=""/>
  <path d="M 45.18 338.729 C 64.581 342.462 61.989 371.454 83.884 365.628 C 105.777 359.801 103.925 358.433 114.713 367.67 C 114.713 367.67 119.031 376.725 127.829 378.063 C 162.492 383.337 208.639 331.814 172.011 304.722 C 169.365 302.767 165.562 302.071 161.356 301.508 C 138.534 298.471 131.667 308.951 113.182 282.808 C 94.698 256.663 71.183 295.194 55.903 294.174 C 40.623 293.154 27.079 288.921 15.537 305.152 C 3.995 321.381 25.774 335.012 45.18 338.729 Z" fill="#B8C1C9" style=""/>
  <path d="M 161.78 341.717 L 162.482 340.635 C 162.002 340.327 113.092 309.962 12.882 309.74 L 12.882 311.028 C 112.715 311.248 161.299 341.411 161.78 341.717 Z" fill="white" style=""/>
  <path d="M 98.642 304.759 C 111.599 292.71 113.726 283.33 113.81 282.938 L 112.535 282.669 C 112.518 282.761 110.378 292.088 97.749 303.82 L 98.642 304.759 Z" fill="white" style=""/>
  <path d="M 96.65 318.678 C 100.223 312.128 99.673 302.81 95.058 291.73 C 92.866 286.536 90.161 281.569 86.984 276.9 L 85.923 277.638 C 86.1 277.889 103.723 303.007 95.507 318.069 L 96.65 318.678 Z" fill="white" style=""/>
  <path d="M 70.243 316.997 C 71.785 315.663 72.619 314.797 72.657 314.757 L 71.72 313.88 C 71.545 314.063 54.01 332.237 27.551 332.007 L 27.551 333.292 C 48.848 333.479 64.487 321.971 70.243 316.997 Z" fill="white" style=""/>
  <path d="M 57.892 347.004 C 63.782 340.207 65.362 333.523 65.65 329.105 C 65.961 324.295 64.878 321.124 64.835 320.992 L 63.604 321.412 C 63.644 321.533 67.692 333.739 56.905 346.166 L 57.892 347.004 Z" fill="white" style=""/>
  <path d="M 304.558 341.93 L 304.558 302.446 L 224.056 302.446 L 224.056 341.93 C 224.056 352.191 217.154 360.509 208.641 360.509 L 205.397 360.509 L 205.397 365.607 L 323.221 365.607 L 323.221 360.509 L 319.978 360.509 C 311.465 360.509 304.558 352.191 304.558 341.93 Z" fill="#00A3FE" style=""/>
  <path d="M 322.557 365.607 L 206.056 365.607 C 205.373 365.607 204.718 365.338 204.235 364.86 C 203.752 364.381 203.479 363.733 203.479 363.057 C 203.479 362.381 203.752 361.732 204.235 361.255 C 204.718 360.777 205.373 360.509 206.056 360.509 L 322.557 360.509 C 323.248 360.509 323.895 360.777 324.379 361.255 C 324.865 361.732 325.135 362.381 325.135 363.057 C 325.135 363.733 324.865 364.381 324.379 364.86 C 323.895 365.338 323.248 365.607 322.557 365.607 Z" fill="#016EB9" style=""/>
  <path d="M 401.432 326.687 L 129.206 323.596 C 126.406 323.563 123.731 322.44 121.762 320.47 C 119.793 318.5 118.688 315.84 118.688 313.07 L 118.688 148.684 C 118.688 145.92 119.787 143.268 121.748 141.298 C 123.708 139.33 126.372 138.203 129.165 138.16 L 397.884 134.088 C 400.695 134.045 403.408 135.107 405.437 137.04 C 407.457 138.972 408.626 141.619 408.679 144.401 L 412.191 315.947 C 412.218 317.357 411.966 318.759 411.437 320.068 C 410.906 321.377 410.116 322.568 409.111 323.57 C 408.104 324.571 406.91 325.364 405.589 325.899 C 404.278 326.434 402.859 326.702 401.432 326.687 Z" fill="#016EB9" style=""/>
  <path d="M 392.216 150.649 L 134.942 150.649 C 131.792 150.649 129.237 153.176 129.237 156.294 L 129.237 288.44 C 129.237 291.557 131.792 294.084 134.942 294.084 L 392.216 294.084 C 395.36 294.084 397.92 291.557 397.92 288.44 L 397.92 156.294 C 397.92 153.176 395.36 150.649 392.216 150.649 Z" fill="#EAEAEA" style=""/>
  <path d="M 291.643 105.822 L 295.02 105.731 C 295.334 105.724 295.63 105.656 295.918 105.532 C 296.196 105.408 296.447 105.231 296.663 105.01 C 296.87 104.788 297.04 104.529 297.148 104.244 C 297.256 103.961 297.31 103.657 297.3 103.353 L 297.193 99.28 C 297.175 98.667 296.914 98.084 296.466 97.661 C 296.008 97.238 295.406 97.01 294.786 97.025 L 292.397 97.09 C 291.894 97.103 291.4 96.955 290.987 96.669 C 290.573 96.383 290.268 95.973 290.107 95.503 C 290.044 95.317 289.981 95.131 289.909 94.949 C 289.747 94.51 289.729 94.035 289.846 93.583 C 289.963 93.132 290.223 92.727 290.573 92.422 L 292.208 91.007 C 292.675 90.601 292.962 90.029 293.008 89.415 C 293.044 88.8 292.837 88.196 292.433 87.732 L 289.72 84.67 C 289.514 84.441 289.271 84.253 288.993 84.118 C 288.715 83.983 288.418 83.902 288.113 83.882 C 287.807 83.862 287.493 83.902 287.205 84 C 286.918 84.097 286.649 84.251 286.415 84.451 L 284.772 85.865 C 284.422 86.174 283.981 86.368 283.514 86.422 C 283.048 86.478 282.572 86.391 282.158 86.175 C 281.987 86.085 281.808 85.995 281.628 85.912 C 281.179 85.695 280.811 85.339 280.577 84.897 C 280.344 84.455 280.263 83.951 280.344 83.459 L 280.721 81.12 C 280.82 80.513 280.676 79.892 280.308 79.395 C 279.939 78.896 279.391 78.56 278.781 78.463 L 274.721 77.814 C 274.111 77.717 273.482 77.865 272.979 78.225 C 272.477 78.585 272.135 79.129 272.036 79.736 L 271.497 83.045 C 271.426 83.479 271.228 83.884 270.931 84.212 C 270.635 84.54 270.248 84.778 269.818 84.899 C 269.072 85.109 268.344 85.373 267.636 85.686 C 267.177 85.893 266.656 85.95 266.162 85.845 C 265.668 85.741 265.228 85.483 264.887 85.109 L 263.136 83.125 C 262.929 82.895 262.687 82.708 262.408 82.572 C 262.139 82.437 261.834 82.357 261.528 82.336 C 261.223 82.316 260.917 82.357 260.621 82.454 C 260.334 82.551 260.064 82.705 259.831 82.906 L 256.732 85.588 C 256.264 85.993 255.977 86.565 255.942 87.179 C 255.897 87.792 256.104 88.397 256.517 88.86 L 258.87 91.529 C 259.175 91.861 259.363 92.27 259.435 92.708 C 259.507 93.146 259.445 93.594 259.264 94.001 C 259.175 94.198 259.094 94.4 259.013 94.6 C 258.843 95.02 258.546 95.381 258.177 95.639 C 257.8 95.896 257.36 96.038 256.902 96.049 L 253.077 96.148 C 252.457 96.166 251.873 96.425 251.442 96.872 C 251.01 97.319 250.786 97.915 250.804 98.53 L 250.911 102.602 C 250.93 103.216 251.191 103.799 251.64 104.222 C 252.089 104.645 252.69 104.874 253.31 104.857 L 256.597 104.771 C 257.092 104.758 257.567 104.899 257.981 105.173 C 258.384 105.445 258.689 105.838 258.86 106.294 L 258.86 106.325 C 259.022 106.765 259.049 107.242 258.933 107.696 C 258.815 108.149 258.564 108.557 258.205 108.864 L 255.887 110.874 C 255.654 111.074 255.466 111.318 255.331 111.591 C 255.187 111.864 255.106 112.161 255.088 112.466 C 255.07 112.77 255.106 113.075 255.205 113.363 C 255.304 113.653 255.466 113.919 255.663 114.147 L 258.375 117.213 C 258.582 117.441 258.824 117.63 259.103 117.765 C 259.382 117.899 259.677 117.979 259.992 117.999 C 260.298 118.02 260.602 117.979 260.89 117.881 C 261.187 117.784 261.456 117.63 261.689 117.43 L 264.006 115.42 C 264.357 115.111 264.797 114.917 265.273 114.862 C 265.74 114.806 266.216 114.894 266.638 115.112 L 266.665 115.131 C 267.105 115.356 267.455 115.71 267.671 116.144 C 267.895 116.578 267.977 117.07 267.895 117.549 L 267.375 120.754 C 267.33 121.055 267.339 121.362 267.411 121.658 C 267.482 121.956 267.608 122.235 267.788 122.482 C 267.967 122.729 268.201 122.94 268.462 123.099 C 268.722 123.259 269.018 123.366 269.315 123.413 L 273.374 124.06 C 273.994 124.157 274.623 124.009 275.125 123.648 C 275.629 123.288 275.961 122.745 276.069 122.137 L 276.671 118.405 C 276.743 117.96 276.939 117.543 277.255 117.21 C 277.56 116.875 277.955 116.639 278.404 116.527 C 278.61 116.475 278.826 116.419 279.024 116.358 C 279.455 116.234 279.913 116.237 280.335 116.363 C 280.766 116.49 281.143 116.734 281.439 117.067 L 283.802 119.737 C 283.999 119.966 284.251 120.154 284.52 120.288 C 284.799 120.424 285.104 120.504 285.41 120.523 C 285.715 120.543 286.02 120.504 286.316 120.406 C 286.604 120.309 286.874 120.154 287.107 119.953 L 290.205 117.272 C 290.439 117.071 290.628 116.827 290.763 116.554 C 290.906 116.281 290.978 115.985 291.005 115.68 C 291.022 115.377 290.987 115.072 290.879 114.783 C 290.78 114.495 290.628 114.229 290.43 113.999 L 288.669 112.013 C 288.338 111.636 288.14 111.164 288.104 110.666 C 288.059 110.168 288.184 109.672 288.454 109.249 C 288.858 108.598 289.217 107.922 289.522 107.225 C 289.703 106.814 289.999 106.464 290.376 106.215 C 290.754 105.966 291.193 105.829 291.643 105.822 Z M 280.47 107.721 C 276.877 110.839 269.521 109.953 266.369 106.393 C 263.225 102.833 264.482 96.816 268.076 93.726 C 271.677 90.636 277.811 92.28 280.954 95.839 C 284.107 99.398 284.072 104.605 280.47 107.718 L 280.47 107.721 Z" fill="#00A3FE" style=""/>
  <path d="M 274.137 126.645 C 274.012 126.646 273.878 126.636 273.752 126.614 L 269.692 125.968 C 269.378 125.921 269.081 125.81 268.812 125.646 C 268.542 125.482 268.3 125.267 268.12 125.012 C 267.931 124.758 267.796 124.469 267.725 124.163 C 267.653 123.859 267.644 123.541 267.689 123.231 L 268.21 120.028 C 268.291 119.561 268.219 119.084 268.003 118.662 C 267.788 118.241 267.446 117.896 267.025 117.676 L 266.989 117.676 C 266.585 117.467 266.126 117.384 265.668 117.44 C 265.211 117.495 264.779 117.685 264.438 117.986 L 262.121 119.993 C 261.878 120.201 261.609 120.359 261.303 120.459 C 261.007 120.56 260.684 120.601 260.37 120.58 C 260.054 120.56 259.74 120.478 259.462 120.34 C 259.175 120.2 258.923 120.008 258.716 119.771 L 256.005 116.703 C 255.788 116.467 255.627 116.193 255.529 115.896 C 255.43 115.598 255.384 115.284 255.403 114.971 C 255.43 114.658 255.51 114.351 255.654 114.071 C 255.788 113.789 255.986 113.538 256.229 113.332 L 258.546 111.324 C 258.887 111.022 259.139 110.624 259.247 110.184 C 259.354 109.742 259.336 109.279 259.175 108.853 L 259.175 108.821 C 259.013 108.38 258.716 107.999 258.322 107.734 C 257.926 107.469 257.459 107.333 256.983 107.344 L 253.705 107.43 C 253.068 107.447 252.447 107.211 251.981 106.774 C 251.514 106.339 251.244 105.738 251.227 105.105 L 251.118 101.032 C 251.101 100.4 251.343 99.787 251.783 99.328 C 252.223 98.868 252.824 98.6 253.471 98.583 L 257.288 98.481 C 257.729 98.472 258.16 98.334 258.519 98.084 C 258.887 97.835 259.165 97.484 259.336 97.078 C 259.417 96.874 259.498 96.673 259.588 96.476 C 259.759 96.082 259.822 95.649 259.749 95.226 C 259.687 94.803 259.498 94.408 259.211 94.087 L 256.848 91.417 C 256.426 90.941 256.211 90.318 256.256 89.686 C 256.3 89.054 256.597 88.465 257.073 88.047 L 260.172 85.365 C 260.405 85.158 260.684 84.999 260.989 84.899 C 261.286 84.798 261.6 84.757 261.923 84.778 C 262.237 84.799 262.542 84.881 262.83 85.02 C 263.117 85.16 263.369 85.354 263.576 85.591 L 265.327 87.574 C 265.65 87.939 266.09 88.19 266.566 88.291 C 267.052 88.392 267.545 88.337 267.994 88.134 C 268.704 87.82 269.431 87.556 270.177 87.342 C 270.599 87.224 270.967 86.992 271.255 86.673 C 271.551 86.353 271.74 85.96 271.811 85.538 L 272.351 82.229 C 272.449 81.604 272.799 81.044 273.32 80.673 C 273.832 80.303 274.479 80.151 275.117 80.251 L 279.176 80.898 C 279.805 80.998 280.371 81.345 280.748 81.858 C 281.125 82.372 281.278 83.012 281.179 83.639 L 280.793 85.973 C 280.712 86.451 280.793 86.941 281.017 87.371 C 281.242 87.801 281.601 88.145 282.041 88.356 C 282.221 88.439 282.401 88.529 282.572 88.618 C 282.975 88.827 283.434 88.908 283.891 88.853 C 284.34 88.797 284.772 88.608 285.113 88.309 L 286.748 86.894 C 287.232 86.478 287.862 86.268 288.499 86.31 C 289.137 86.352 289.729 86.643 290.152 87.12 L 292.864 90.182 C 293.07 90.418 293.232 90.691 293.34 90.989 C 293.439 91.286 293.484 91.6 293.457 91.913 C 293.439 92.226 293.358 92.532 293.215 92.813 C 293.07 93.095 292.882 93.346 292.64 93.553 L 291.005 94.97 C 290.664 95.267 290.412 95.66 290.295 96.097 C 290.188 96.534 290.205 96.996 290.358 97.42 C 290.43 97.606 290.493 97.792 290.556 97.976 C 290.708 98.437 291.005 98.837 291.409 99.115 C 291.804 99.394 292.29 99.536 292.774 99.522 L 295.172 99.457 C 295.81 99.44 296.43 99.676 296.897 100.113 C 297.355 100.547 297.624 101.148 297.642 101.78 L 297.759 105.853 C 297.776 106.485 297.534 107.098 297.094 107.557 C 296.655 108.017 296.052 108.285 295.415 108.303 L 292.029 108.395 C 291.589 108.408 291.176 108.543 290.816 108.784 C 290.457 109.024 290.169 109.361 289.999 109.754 C 289.684 110.458 289.326 111.139 288.921 111.791 C 288.661 112.2 288.534 112.682 288.58 113.166 C 288.616 113.649 288.804 114.107 289.128 114.472 L 290.888 116.459 C 291.095 116.694 291.256 116.97 291.355 117.267 C 291.454 117.564 291.498 117.878 291.481 118.19 C 291.454 118.503 291.373 118.81 291.239 119.09 C 291.095 119.372 290.897 119.624 290.664 119.829 L 287.547 122.505 C 287.314 122.713 287.035 122.871 286.73 122.972 C 286.433 123.072 286.119 123.113 285.795 123.092 C 285.481 123.071 285.176 122.988 284.889 122.85 C 284.601 122.71 284.35 122.516 284.143 122.279 L 281.78 119.611 C 281.502 119.288 281.125 119.051 280.712 118.929 C 280.299 118.808 279.859 118.805 279.437 118.921 C 279.231 118.983 279.014 119.042 278.818 119.095 C 278.386 119.201 278 119.431 277.703 119.755 C 277.398 120.079 277.209 120.481 277.137 120.914 L 276.536 124.647 C 276.437 125.207 276.149 125.716 275.709 126.083 C 275.27 126.448 274.712 126.648 274.137 126.645 Z M 265.938 117.253 C 266.324 117.252 266.711 117.345 267.052 117.525 L 267.088 117.54 C 267.528 117.775 267.887 118.142 268.112 118.59 C 268.336 119.038 268.417 119.544 268.336 120.037 L 267.815 123.241 C 267.716 123.828 267.859 124.429 268.21 124.913 C 268.56 125.397 269.09 125.723 269.683 125.821 L 273.743 126.463 C 274.335 126.557 274.946 126.416 275.431 126.068 C 275.925 125.721 276.248 125.197 276.347 124.609 L 276.958 120.877 C 277.03 120.416 277.236 119.988 277.55 119.645 C 277.865 119.3 278.278 119.057 278.736 118.942 C 278.943 118.89 279.159 118.835 279.365 118.773 C 279.805 118.647 280.281 118.648 280.721 118.778 C 281.161 118.908 281.557 119.16 281.862 119.506 L 284.224 122.174 C 284.422 122.397 284.655 122.579 284.925 122.71 C 285.194 122.841 285.481 122.919 285.778 122.938 C 286.083 122.957 286.379 122.919 286.657 122.823 C 286.945 122.728 287.205 122.58 287.43 122.385 L 290.529 119.703 C 290.978 119.311 291.256 118.756 291.302 118.16 C 291.337 117.566 291.14 116.98 290.744 116.53 L 288.984 114.543 C 288.643 114.156 288.437 113.669 288.391 113.156 C 288.355 112.643 288.481 112.13 288.759 111.695 C 289.164 111.047 289.522 110.373 289.828 109.676 C 290.017 109.259 290.314 108.903 290.691 108.647 C 291.077 108.392 291.526 108.248 291.984 108.234 L 295.361 108.142 C 295.962 108.125 296.537 107.872 296.95 107.44 C 297.363 107.007 297.588 106.43 297.57 105.834 L 297.462 101.765 C 297.445 101.168 297.193 100.603 296.753 100.192 C 296.322 99.782 295.738 99.559 295.136 99.574 L 292.739 99.639 C 292.217 99.654 291.715 99.502 291.283 99.207 C 290.861 98.913 290.546 98.491 290.385 98.005 C 290.322 97.819 290.259 97.637 290.188 97.455 C 290.026 97.003 289.999 96.513 290.125 96.048 C 290.241 95.582 290.502 95.165 290.87 94.851 L 292.505 93.435 C 292.729 93.24 292.918 93.004 293.044 92.739 C 293.179 92.474 293.259 92.186 293.278 91.891 C 293.295 91.596 293.259 91.3 293.16 91.02 C 293.07 90.74 292.918 90.481 292.72 90.26 L 290.008 87.194 C 289.613 86.747 289.046 86.475 288.445 86.434 C 287.843 86.395 287.251 86.593 286.802 86.984 L 285.167 88.4 C 284.799 88.716 284.35 88.916 283.865 88.974 C 283.389 89.032 282.895 88.945 282.463 88.723 C 282.292 88.634 282.122 88.544 281.942 88.461 C 281.475 88.239 281.089 87.872 280.856 87.417 C 280.613 86.961 280.533 86.441 280.613 85.933 L 281 83.598 C 281.089 83.01 280.946 82.408 280.596 81.925 C 280.245 81.441 279.715 81.115 279.122 81.018 L 275.062 80.369 C 274.47 80.276 273.859 80.417 273.374 80.765 C 272.89 81.112 272.557 81.636 272.458 82.223 L 271.919 85.533 C 271.839 85.981 271.641 86.399 271.335 86.739 C 271.03 87.077 270.626 87.325 270.185 87.45 C 269.45 87.661 268.722 87.923 268.021 88.236 C 267.545 88.449 267.016 88.507 266.513 88.399 C 266.001 88.291 265.542 88.023 265.192 87.636 L 263.441 85.652 C 263.243 85.43 263.01 85.248 262.74 85.117 C 262.471 84.986 262.184 84.909 261.878 84.889 C 261.582 84.87 261.286 84.909 261.007 85.003 C 260.72 85.098 260.459 85.247 260.235 85.442 L 257.136 88.124 C 256.687 88.517 256.409 89.072 256.372 89.667 C 256.327 90.262 256.525 90.848 256.921 91.298 L 259.283 93.966 C 259.588 94.308 259.786 94.727 259.858 95.176 C 259.929 95.625 259.875 96.086 259.687 96.503 C 259.606 96.698 259.516 96.898 259.435 97.099 C 259.264 97.535 258.959 97.908 258.573 98.173 C 258.177 98.439 257.72 98.584 257.252 98.592 L 253.427 98.693 C 253.13 98.702 252.834 98.767 252.565 98.887 C 252.295 99.007 252.044 99.179 251.836 99.394 C 251.64 99.608 251.478 99.86 251.37 100.136 C 251.262 100.412 251.208 100.706 251.217 101.001 L 251.325 105.074 C 251.343 105.67 251.604 106.236 252.034 106.646 C 252.474 107.057 253.058 107.28 253.66 107.264 L 256.947 107.178 C 257.45 107.163 257.945 107.308 258.366 107.589 C 258.78 107.87 259.103 108.274 259.274 108.745 L 259.274 108.768 C 259.445 109.222 259.471 109.716 259.346 110.184 C 259.228 110.652 258.969 111.074 258.6 111.392 L 256.274 113.4 C 256.049 113.594 255.87 113.831 255.735 114.096 C 255.6 114.361 255.529 114.65 255.51 114.945 C 255.483 115.239 255.529 115.536 255.618 115.816 C 255.717 116.096 255.87 116.354 256.068 116.576 L 258.78 119.641 C 258.977 119.864 259.211 120.046 259.481 120.177 C 259.749 120.309 260.046 120.385 260.342 120.405 C 260.639 120.425 260.935 120.385 261.223 120.29 C 261.501 120.195 261.761 120.047 261.986 119.852 L 264.303 117.843 C 264.752 117.454 265.336 117.244 265.938 117.253 Z" fill="#131F2D" style=""/>
  <g opacity="0.6" transform="matrix(0.89814, 0, 0, 0.889568, -647.811604, -17.39886)" style="">
    <path d="M1136.68 208.029H892.495C889.003 208.029 886.173 210.856 886.173 214.343V255.827C886.173 259.314 889.003 262.141 892.495 262.141H1136.68C1140.17 262.141 1143 259.314 1143 255.827V214.343C1143 210.856 1140.17 208.029 1136.68 208.029Z" fill="#D5D6DA"/>
  </g>
  <g opacity="0.6" transform="matrix(0.89814, 0, 0, 0.889568, -647.811604, -17.39886)" style="">
    <path d="M1139.16 278.656H1021.25C1021.01 278.656 1020.77 278.609 1020.55 278.517C1020.33 278.425 1020.13 278.29 1019.96 278.121C1019.79 277.951 1019.65 277.749 1019.56 277.528C1019.47 277.306 1019.42 277.069 1019.42 276.829V275.752C1019.42 275.511 1019.47 275.272 1019.56 275.05C1019.66 274.827 1019.79 274.625 1019.96 274.456C1020.14 274.286 1020.34 274.151 1020.56 274.06C1020.79 273.969 1021.02 273.924 1021.27 273.925L1139.18 275.012C1139.66 275.017 1140.12 275.211 1140.46 275.552C1140.8 275.894 1140.99 276.355 1140.99 276.836V276.836C1140.99 277.319 1140.8 277.782 1140.45 278.123C1140.11 278.464 1139.65 278.656 1139.16 278.656V278.656Z" fill="#D5D6DA"/>
  </g>
  <path d="M 367.392 189.834 L 296.331 189.834 L 296.331 187.168 L 367.392 187.792 L 367.392 189.834 Z" fill="#657285" style=""/>
  <path d="M 328.071 195.835 L 296.331 195.835 L 296.331 193.168 L 328.071 193.795 L 328.071 195.835 Z" fill="#00A3FE" style=""/>
  <path d="M 338.373 208.818 L 296.331 208.818 L 296.331 206.147 L 338.373 206.775 L 338.373 208.818 Z" fill="#00A3FE" style=""/>
  <path d="M 328.071 202.799 L 296.331 202.799 L 296.331 200.132 L 328.071 200.759 L 328.071 202.799 Z" fill="#5C305D" style=""/>
  <path d="M 351.216 202.799 L 332.616 202.799 L 332.616 200.132 L 351.216 200.759 L 351.216 202.799 Z" fill="#657285" style=""/>
  <path d="M 364.347 195.835 L 332.616 195.835 L 332.616 193.168 L 364.347 193.795 L 364.347 195.835 Z" fill="#00A3FE" style=""/>
  <g opacity="0.6" transform="matrix(0.89814, 0, 0, 0.889568, -647.811604, -17.39886)" style="">
    <path d="M1139.34 289.155L1021.12 290.545C1020.9 290.547 1020.68 290.506 1020.47 290.423C1020.27 290.341 1020.08 290.218 1019.93 290.063C1019.77 289.907 1019.64 289.722 1019.56 289.518C1019.47 289.314 1019.43 289.095 1019.43 288.874V287.485C1019.43 287.043 1019.61 286.619 1019.92 286.306C1020.23 285.993 1020.66 285.818 1021.1 285.818H1139.32C1139.76 285.818 1140.19 285.993 1140.5 286.306C1140.81 286.618 1140.99 287.042 1140.99 287.485V287.485C1140.99 287.924 1140.82 288.346 1140.51 288.659C1140.2 288.971 1139.78 289.15 1139.34 289.155V289.155Z" fill="#D5D6DA"/>
  </g>
  <g opacity="0.6" transform="matrix(0.89814, 0, 0, 0.889568, -647.811604, -17.39886)" style="">
    <path d="M951.757 325.842H887.057V321.994L950.704 322.869C951.237 322.877 951.746 323.094 952.12 323.473C952.495 323.853 952.704 324.365 952.703 324.898V324.898C952.703 325.148 952.603 325.389 952.426 325.566C952.248 325.743 952.008 325.842 951.757 325.842Z" fill="#D5D6DA"/>
  </g>
  <g opacity="0.6" transform="matrix(0.89814, 0, 0, 0.889568, -647.811604, -17.39886)" style="">
    <path d="M971.98 335.244L888.121 336.363C887.982 336.365 887.844 336.341 887.715 336.289C887.586 336.238 887.469 336.162 887.369 336.065C887.27 335.968 887.192 335.852 887.138 335.724C887.084 335.597 887.057 335.459 887.057 335.321V333.619C887.057 333.343 887.167 333.077 887.362 332.882C887.558 332.687 887.823 332.577 888.1 332.577H971.959C972.235 332.577 972.501 332.687 972.696 332.882C972.892 333.077 973.002 333.343 973.002 333.619V334.202C973.002 334.475 972.895 334.737 972.704 334.932C972.512 335.127 972.253 335.239 971.98 335.244V335.244Z" fill="#D5D6DA"/>
  </g>
  <g opacity="0.6" transform="matrix(0.89814, 0, 0, 0.889568, -647.811604, -17.39886)" style="">
    <path d="M1038.8 335.255L980.133 336.352C979.954 336.355 979.776 336.323 979.609 336.257C979.443 336.19 979.291 336.092 979.163 335.966C979.036 335.841 978.934 335.691 978.865 335.526C978.795 335.361 978.76 335.184 978.76 335.005V333.911C978.76 333.553 978.902 333.21 979.155 332.958C979.408 332.705 979.751 332.563 980.109 332.563H1038.8C1039.16 332.564 1039.5 332.706 1039.75 332.959C1040 333.212 1040.15 333.554 1040.15 333.911C1040.15 334.267 1040 334.609 1039.75 334.861C1039.5 335.113 1039.16 335.255 1038.8 335.255V335.255Z" fill="#D5D6DA"/>
  </g>
  <g opacity="0.6" transform="matrix(0.89814, 0, 0, 0.889568, -647.811604, -17.39886)" style="">
    <path d="M1139.34 304.357L1021.12 305.747C1020.9 305.749 1020.68 305.708 1020.47 305.625C1020.27 305.543 1020.08 305.42 1019.93 305.265C1019.77 305.109 1019.64 304.924 1019.56 304.72C1019.47 304.516 1019.43 304.297 1019.43 304.076V302.687C1019.43 302.245 1019.61 301.821 1019.92 301.508C1020.23 301.195 1020.66 301.02 1021.1 301.02H1139.32C1139.76 301.02 1140.19 301.195 1140.5 301.508C1140.81 301.82 1140.99 302.244 1140.99 302.687V302.687C1140.99 303.126 1140.82 303.548 1140.51 303.861C1140.2 304.173 1139.78 304.352 1139.34 304.357V304.357Z" fill="#D5D6DA"/>
  </g>
  <path d="M 196.322 222.364 L 153.093 222.364 C 150.333 222.364 148.095 224.577 148.095 227.308 L 148.095 254.056 C 148.095 256.785 150.333 258.999 153.093 258.999 L 196.322 258.999 C 199.082 258.999 201.318 256.785 201.318 254.056 L 201.318 227.308 C 201.318 224.577 199.082 222.364 196.322 222.364 Z" fill="#D5D6DA" style=""/>
  <g opacity="0.6" transform="matrix(0.89814, 0, 0, 0.889568, -647.811604, -17.39886)" style="">
    <path d="M1001.68 269.528H958.12C955.506 269.528 953.388 271.645 953.388 274.255V305.983C953.388 308.593 955.506 310.71 958.12 310.71H1001.68C1004.29 310.71 1006.41 308.593 1006.41 305.983V274.255C1006.41 271.645 1004.29 269.528 1001.68 269.528Z" fill="#D5D6DA"/>
  </g>
  <path d="M 197.793 279.353 C 197.509 294.607 196.397 315.487 192.893 333.796 C 187.057 364.346 151.119 385.305 144.488 388.941 C 144.165 389.119 143.804 389.218 143.435 389.232 C 143.066 389.246 142.698 389.175 142.363 389.023 C 86.15 363.474 87.028 324.65 87.028 324.65 L 87.028 279.051 C 87.028 278.435 87.272 277.844 87.709 277.405 C 88.146 276.967 88.739 276.715 89.361 276.706 C 97.921 276.566 127.772 274.972 140.819 259.811 C 141.033 259.566 141.294 259.368 141.589 259.229 C 141.884 259.09 142.205 259.012 142.532 259.002 C 142.857 258.992 143.182 259.048 143.486 259.169 C 143.789 259.289 144.064 259.47 144.291 259.7 C 149.913 265.352 168.238 281.018 197.692 279.359 L 197.793 279.353 Z" fill="#00A3FE" style=""/>
  <path d="M 143.3 381.517 C 143.263 381.517 143.227 381.509 143.193 381.496 C 131.733 376.385 122.001 370.219 114.263 363.156 C 108.069 357.505 103.136 351.27 99.585 344.618 C 93.552 333.298 93.677 324.589 93.677 324.502 L 93.677 286.283 C 93.67 285.24 94.076 284.236 94.808 283.485 C 95.54 282.735 96.539 282.297 97.593 282.266 C 101.796 282.125 110.118 281.574 118.594 279.461 C 128.706 276.939 136.16 272.973 140.767 267.677 C 140.981 267.427 141.246 267.224 141.546 267.081 C 141.844 266.937 142.17 266.858 142.502 266.847 C 142.833 266.836 143.164 266.893 143.472 267.017 C 143.779 267.139 144.058 267.324 144.289 267.56 C 147.412 270.736 155.81 278.454 166.564 281.497 C 173.248 283.344 180.128 284.412 187.063 284.682 C 188.091 284.725 189.061 285.164 189.767 285.907 C 190.471 286.65 190.853 287.635 190.831 288.652 C 190.383 306.473 189.077 320.835 186.835 332.557 C 185.542 339.314 182.463 346.095 177.653 352.707 C 173.816 357.987 168.884 363.174 162.994 368.124 C 156.94 373.215 150.383 377.688 143.421 381.477 C 143.384 381.5 143.342 381.515 143.3 381.517 Z M 142.584 267.365 L 142.522 267.365 C 142.26 267.375 142.003 267.437 141.768 267.548 C 141.532 267.66 141.322 267.818 141.15 268.014 C 136.491 273.396 128.95 277.416 118.732 279.962 C 110.209 282.088 101.85 282.64 97.62 282.782 C 96.703 282.81 95.833 283.191 95.195 283.845 C 94.557 284.498 94.201 285.372 94.205 286.28 L 94.205 324.517 C 94.205 324.61 94.083 333.212 100.067 344.423 C 103.579 351.008 108.48 357.191 114.631 362.798 C 122.298 369.789 131.938 375.907 143.29 380.978 C 150.18 377.215 156.672 372.781 162.67 367.74 C 171.864 360.017 183.434 347.619 186.329 332.47 C 188.565 320.779 189.867 306.443 190.317 288.65 C 190.331 287.766 189.999 286.912 189.387 286.267 C 188.775 285.622 187.933 285.239 187.04 285.198 C 180.068 284.926 173.151 283.85 166.43 281.996 C 155.557 278.905 147.068 271.129 143.927 267.921 C 143.753 267.743 143.544 267.603 143.313 267.507 C 143.082 267.412 142.834 267.364 142.584 267.365 Z" fill="#131F2D" style=""/>
  <path d="M 155.349 343.339 L 119.778 343.339 C 118.195 343.338 116.676 342.714 115.557 341.607 C 114.438 340.499 113.808 338.998 113.807 337.432 L 113.807 315.718 C 113.808 314.151 114.437 312.649 115.556 311.54 C 116.676 310.433 118.194 309.809 119.778 309.807 L 121.783 309.807 C 122.64 306.307 124.663 303.193 127.526 300.966 C 130.388 298.738 133.923 297.527 137.564 297.527 C 141.205 297.527 144.741 298.738 147.602 300.966 C 150.465 303.193 152.487 306.307 153.345 309.807 L 155.349 309.807 C 156.934 309.809 158.453 310.432 159.573 311.54 C 160.693 312.649 161.323 314.151 161.324 315.718 L 161.324 337.432 C 161.322 338.998 160.691 340.5 159.572 341.608 C 158.452 342.714 156.934 343.338 155.349 343.339 Z M 119.778 310.314 C 118.33 310.316 116.943 310.887 115.92 311.9 C 114.896 312.913 114.321 314.286 114.319 315.718 L 114.319 337.432 C 114.321 338.863 114.896 340.236 115.92 341.249 C 116.943 342.261 118.33 342.831 119.778 342.833 L 155.349 342.833 C 156.798 342.831 158.185 342.261 159.209 341.249 C 160.233 340.237 160.81 338.864 160.812 337.432 L 160.812 315.718 C 160.811 314.286 160.235 312.912 159.211 311.899 C 158.186 310.886 156.799 310.315 155.349 310.314 L 153.143 310.314 C 153.084 310.314 153.028 310.295 152.984 310.26 C 152.937 310.224 152.906 310.175 152.892 310.119 C 152.094 306.689 150.144 303.627 147.359 301.436 C 144.574 299.244 141.122 298.05 137.564 298.05 C 134.005 298.05 130.553 299.244 127.769 301.436 C 124.984 303.627 123.034 306.689 122.236 310.119 C 122.223 310.176 122.19 310.225 122.146 310.26 C 122.1 310.296 122.043 310.314 121.986 310.314 L 119.778 310.314 Z M 149.058 310.314 L 126.073 310.314 C 126.033 310.314 125.994 310.306 125.958 310.288 C 125.922 310.27 125.891 310.245 125.868 310.213 C 125.843 310.181 125.827 310.144 125.82 310.105 C 125.813 310.065 125.815 310.024 125.827 309.987 C 126.607 307.51 128.167 305.347 130.278 303.81 C 132.39 302.273 134.942 301.443 137.564 301.443 C 140.185 301.443 142.738 302.273 144.85 303.81 C 146.962 305.347 148.522 307.51 149.301 309.987 C 149.314 310.024 149.317 310.064 149.311 310.104 C 149.303 310.143 149.289 310.181 149.264 310.213 C 149.241 310.245 149.209 310.27 149.173 310.288 C 149.137 310.306 149.098 310.314 149.058 310.314 Z M 126.426 309.807 L 148.708 309.807 C 147.91 307.513 146.407 305.523 144.411 304.115 C 142.413 302.705 140.023 301.947 137.57 301.947 C 135.117 301.947 132.726 302.705 130.73 304.115 C 128.734 305.523 127.231 307.513 126.432 309.807 L 126.426 309.807 Z" fill="#131F2D" style=""/>
  <path d="M 158.814 306.626 L 125.302 306.626 C 121.917 306.626 119.172 309.34 119.172 312.69 L 119.172 333.586 C 119.172 336.935 121.917 339.65 125.302 339.65 L 158.814 339.65 C 162.199 339.65 164.944 336.935 164.944 333.586 L 164.944 312.69 C 164.944 309.34 162.199 306.626 158.814 306.626 Z" fill="#131F2D" style=""/>
  <path d="M 142.059 325.985 C 138.897 325.985 135.806 325.059 133.175 323.32 C 130.545 321.582 128.495 319.112 127.284 316.221 C 126.074 313.33 125.758 310.15 126.374 307.081 C 126.99 304.012 128.515 301.193 130.75 298.981 C 132.987 296.769 135.836 295.261 138.938 294.651 C 142.039 294.04 145.254 294.354 148.176 295.552 C 151.098 296.749 153.595 298.778 155.351 301.379 C 157.108 303.981 158.046 307.04 158.045 310.169 C 158.041 314.362 156.355 318.382 153.358 321.347 C 150.361 324.311 146.297 325.98 142.059 325.985 Z M 142.059 298.258 C 139.678 298.258 137.35 298.956 135.37 300.265 C 133.391 301.572 131.846 303.432 130.935 305.609 C 130.023 307.786 129.784 310.181 130.248 312.491 C 130.713 314.802 131.859 316.924 133.543 318.59 C 135.226 320.257 137.371 321.391 139.707 321.851 C 142.042 322.311 144.462 322.075 146.663 321.174 C 148.863 320.271 150.743 318.745 152.066 316.786 C 153.389 314.827 154.095 312.525 154.095 310.169 C 154.092 307.012 152.823 303.985 150.566 301.752 C 148.31 299.518 145.251 298.263 142.059 298.258 Z" fill="#131F2D" style=""/>
  <path d="M 142.059 324.428 C 141.617 324.427 141.195 324.252 140.881 323.944 C 140.569 323.634 140.393 323.215 140.392 322.777 L 140.392 314.779 C 140.393 314.342 140.569 313.923 140.881 313.613 C 141.195 313.304 141.617 313.13 142.059 313.129 C 142.501 313.131 142.924 313.305 143.236 313.614 C 143.548 313.924 143.723 314.342 143.724 314.779 L 143.724 322.777 C 143.723 323.214 143.548 323.633 143.236 323.943 C 142.924 324.251 142.501 324.426 142.059 324.428 Z" fill="#00A3FE" style=""/>
  <path d="M 142.059 331.68 C 144.542 331.68 146.553 329.689 146.553 327.233 C 146.553 324.777 144.542 322.787 142.059 322.787 C 139.577 322.787 137.566 324.777 137.566 327.233 C 137.566 329.689 139.577 331.68 142.059 331.68 Z" fill="#00A3FE" style=""/>
  <path d="M 223.791 211.486 C 223.692 211.486 223.595 211.463 223.507 211.419 L 217.099 208.249 C 217.023 208.212 216.955 208.162 216.9 208.101 C 216.845 208.038 216.802 207.966 216.775 207.887 C 216.749 207.808 216.738 207.725 216.746 207.643 C 216.752 207.56 216.775 207.479 216.814 207.405 C 216.851 207.33 216.902 207.263 216.965 207.208 C 217.028 207.154 217.101 207.112 217.18 207.086 C 217.26 207.059 217.344 207.049 217.428 207.057 C 217.511 207.062 217.592 207.086 217.667 207.123 L 224.085 210.288 C 224.226 210.341 224.343 210.444 224.415 210.576 C 224.486 210.708 224.505 210.862 224.47 211.007 C 224.437 211.154 224.349 211.282 224.225 211.368 C 224.102 211.456 223.951 211.495 223.801 211.48 L 223.791 211.486 Z" fill="#131F2D" style=""/>
  <path d="M 214.685 219.096 C 214.516 219.101 214.352 219.04 214.229 218.927 C 214.106 218.812 214.034 218.654 214.029 218.488 C 214.023 218.32 214.085 218.159 214.2 218.037 C 214.316 217.916 214.475 217.844 214.644 217.839 L 221.763 217.363 C 221.932 217.352 222.098 217.406 222.225 217.517 C 222.352 217.626 222.43 217.781 222.442 217.947 C 222.454 218.114 222.398 218.278 222.287 218.404 C 222.176 218.529 222.019 218.607 221.852 218.618 L 214.728 219.093 L 214.685 219.096 Z" fill="#131F2D" style=""/>
  <path d="M 218.712 229.657 C 218.569 229.665 218.427 229.624 218.31 229.54 C 218.194 229.456 218.11 229.336 218.073 229.198 C 218.036 229.059 218.049 228.914 218.109 228.784 C 218.168 228.654 218.272 228.549 218.401 228.486 L 224.594 224.887 C 224.665 224.845 224.745 224.817 224.827 224.806 C 224.91 224.794 224.993 224.799 225.075 224.82 C 225.155 224.84 225.231 224.877 225.297 224.926 C 225.363 224.975 225.419 225.037 225.461 225.109 C 225.503 225.179 225.531 225.259 225.543 225.339 C 225.554 225.422 225.551 225.505 225.528 225.584 C 225.508 225.664 225.471 225.739 225.422 225.805 C 225.371 225.871 225.308 225.925 225.236 225.968 L 219.047 229.567 C 218.946 229.627 218.831 229.658 218.712 229.657 Z" fill="#131F2D" style=""/>
  <path d="M 244.62 211.486 C 244.502 211.488 244.386 211.455 244.285 211.394 C 244.184 211.332 244.103 211.243 244.052 211.137 C 244.013 211.064 243.99 210.983 243.983 210.901 C 243.976 210.818 243.986 210.735 244.013 210.656 C 244.039 210.577 244.082 210.505 244.137 210.443 C 244.192 210.381 244.26 210.33 244.337 210.294 L 250.751 207.13 C 250.831 207.093 250.911 207.071 250.993 207.066 C 251.073 207.06 251.164 207.071 251.235 207.097 C 251.316 207.123 251.388 207.164 251.451 207.219 C 251.514 207.273 251.568 207.339 251.604 207.413 C 251.64 207.486 251.666 207.567 251.666 207.649 C 251.676 207.731 251.666 207.814 251.64 207.892 C 251.612 207.971 251.568 208.042 251.514 208.105 C 251.459 208.167 251.397 208.218 251.316 208.255 L 244.891 211.412 C 244.808 211.457 244.716 211.483 244.62 211.486 Z" fill="#131F2D" style=""/>
  <path d="M 253.723 219.096 L 253.678 219.096 L 246.559 218.62 C 246.391 218.609 246.234 218.532 246.124 218.406 C 246.013 218.281 245.958 218.117 245.97 217.95 C 245.981 217.784 246.058 217.628 246.186 217.519 C 246.313 217.41 246.479 217.355 246.646 217.367 L 253.768 217.842 C 253.938 217.848 254.092 217.919 254.208 218.041 C 254.324 218.162 254.387 218.324 254.379 218.491 C 254.379 218.658 254.307 218.815 254.181 218.93 C 254.056 219.044 253.894 219.104 253.723 219.099 L 253.723 219.096 Z" fill="#131F2D" style=""/>
  <path d="M 249.698 229.657 C 249.588 229.655 249.48 229.624 249.386 229.567 L 243.196 225.968 C 243.124 225.925 243.062 225.871 243.011 225.805 C 242.961 225.739 242.924 225.664 242.904 225.584 C 242.884 225.505 242.878 225.422 242.889 225.339 C 242.901 225.259 242.929 225.179 242.972 225.109 C 243.013 225.037 243.07 224.975 243.136 224.926 C 243.202 224.877 243.278 224.84 243.359 224.82 C 243.439 224.799 243.523 224.794 243.606 224.806 C 243.688 224.817 243.768 224.845 243.839 224.887 L 250.02 228.48 C 250.148 228.543 250.251 228.648 250.312 228.778 C 250.373 228.908 250.382 229.053 250.346 229.191 C 250.31 229.329 250.227 229.45 250.11 229.534 C 249.993 229.617 249.851 229.659 249.707 229.65 L 249.698 229.657 Z" fill="#131F2D" style=""/>
  <path d="M 246.953 215.504 C 246.953 223.66 241.485 230.333 234.614 230.735 C 234.39 230.747 234.165 230.753 233.939 230.753 C 226.758 230.753 220.928 223.925 220.928 215.504 C 220.898 212.112 221.894 208.788 223.791 205.962 C 226.173 202.48 229.833 200.249 233.939 200.249 C 235.063 200.251 236.181 200.419 237.254 200.75 C 240.064 201.67 242.473 203.507 244.09 205.962 C 245.984 208.788 246.983 212.112 246.953 215.504 Z" fill="#657285" style=""/>
  <path d="M 246.953 215.503 C 246.953 223.66 241.485 230.333 234.614 230.735 C 233.726 228.215 233.09 225.616 232.716 222.974 C 231.928 217.493 232.263 212.296 233.468 208.07 C 234.321 205.06 235.618 202.539 237.253 200.75 C 240.063 201.67 242.473 203.507 244.09 205.962 C 245.984 208.788 246.983 212.112 246.953 215.503 Z" fill="#657285" style=""/>
  <path d="M 233.939 211.678 C 239.545 211.678 244.09 209.12 244.09 205.966 C 244.09 202.811 239.545 200.253 233.939 200.253 C 228.334 200.253 223.791 202.811 223.791 205.966 C 223.791 209.12 228.334 211.678 233.939 211.678 Z" fill="#131F2D" style=""/>
  <path d="M 231.092 202.232 C 230.927 202.232 230.768 202.168 230.651 202.052 C 230.533 201.936 230.467 201.779 230.467 201.615 C 230.349 196.842 225.899 194.907 225.852 194.889 C 225.697 194.824 225.575 194.699 225.511 194.544 C 225.448 194.39 225.45 194.216 225.516 194.062 C 225.583 193.91 225.708 193.787 225.865 193.725 C 226.021 193.663 226.196 193.665 226.351 193.73 C 226.567 193.823 231.601 196.01 231.735 201.584 C 231.739 201.667 231.725 201.751 231.696 201.828 C 231.666 201.906 231.62 201.977 231.562 202.037 C 231.503 202.098 231.433 202.145 231.355 202.178 C 231.279 202.21 231.195 202.227 231.11 202.227 L 231.092 202.232 Z" fill="#131F2D" style=""/>
  <path d="M 236.345 203.849 C 236.186 203.849 236.033 203.79 235.916 203.683 C 235.801 203.575 235.731 203.429 235.719 203.271 C 235.18 196.542 239.817 193.878 240.014 193.768 C 240.16 193.686 240.335 193.665 240.496 193.709 C 240.658 193.753 240.796 193.86 240.878 194.006 C 240.962 194.15 240.983 194.322 240.938 194.483 C 240.893 194.643 240.785 194.779 240.639 194.861 C 240.463 194.96 236.512 197.274 236.985 203.173 C 236.992 203.255 236.984 203.338 236.958 203.416 C 236.933 203.495 236.892 203.568 236.838 203.631 C 236.784 203.694 236.718 203.744 236.643 203.782 C 236.569 203.819 236.487 203.84 236.404 203.846 L 236.345 203.849 Z" fill="#131F2D" style=""/>
  <g opacity="0.4" transform="matrix(0.89814, 0, 0, 0.889568, -647.811604, -17.39886)" style="">
    <path d="M1024.29 305.476C1047.27 282.515 1047.27 245.286 1024.29 222.324C1001.3 199.363 964.031 199.363 941.044 222.324C918.056 245.286 918.056 282.515 941.043 305.476C964.031 328.438 1001.3 328.438 1024.29 305.476Z" fill="#00A3FE"/>
  </g>
  <path d="M 294.858 261.933 C 294.858 261.933 285.517 262.134 282.958 258.084 C 280.389 254.034 284.736 250.509 284.736 250.509 L 298.639 257.945 L 294.858 261.933 Z" fill="#FF7955" style=""/>
  <path d="M 280.299 240.75 L 276.231 247.245 L 379.355 310.43 L 383.424 303.935 L 280.299 240.75 Z" fill="#131F2D" style=""/>
  <path d="M 384.421 306.626 L 382.211 310.153 C 381.789 310.827 381.107 311.307 380.334 311.488 C 379.552 311.67 378.735 311.538 378.052 311.121 L 324.254 278.154 C 323.572 277.737 323.087 277.069 322.907 276.296 C 322.718 275.525 322.853 274.713 323.275 274.038 L 325.485 270.511 C 325.906 269.837 326.58 269.357 327.362 269.175 C 328.143 268.994 328.96 269.127 329.643 269.544 L 383.441 302.51 C 384.124 302.928 384.609 303.595 384.789 304.368 C 384.977 305.139 384.842 305.951 384.421 306.626 Z" fill="#131F2D" style=""/>
  <path d="M 187.708 188.525 C 181.945 197.73 179.07 208.423 179.448 219.246 C 179.825 230.069 183.438 240.538 189.829 249.331 C 196.22 258.122 205.104 264.842 215.356 268.639 C 225.607 272.437 236.767 273.14 247.423 270.663 C 258.079 268.186 267.752 262.637 275.224 254.721 C 282.688 246.803 287.619 236.873 289.379 226.184 C 291.148 215.497 289.667 204.531 285.131 194.673 C 280.596 184.817 273.212 176.512 263.908 170.808 C 257.729 167.021 250.858 164.476 243.681 163.317 C 236.51 162.158 229.175 162.408 222.1 164.053 C 215.024 165.697 208.345 168.706 202.444 172.904 C 196.544 177.104 191.536 182.411 187.708 188.525 Z M 277.685 243.662 C 272.422 252.061 264.761 258.73 255.672 262.822 C 246.585 266.916 236.474 268.251 226.618 266.658 C 216.761 265.065 207.604 260.617 200.303 253.875 C 193.002 247.134 187.887 238.402 185.602 228.783 C 183.317 219.165 183.967 209.092 187.468 199.839 C 190.97 190.585 197.167 182.568 205.274 176.799 C 213.382 171.03 223.037 167.769 233.017 167.428 C 242.998 167.089 252.852 169.683 261.348 174.887 C 266.979 178.341 271.874 182.86 275.745 188.186 C 279.625 193.512 282.391 199.54 283.91 205.926 C 285.427 212.313 285.661 218.933 284.592 225.407 C 283.524 231.883 281.171 238.085 277.685 243.662 Z" fill="#131F2D" style=""/>
  <path d="M 378.34 273.61 C 375.843 255.106 354.871 244.654 354.871 244.654 C 354.871 244.654 356.65 285.89 360.234 284.673 C 366.368 282.591 374.774 282.548 378.34 273.61 Z" fill="#00A3FE" style=""/>
  <path d="M 337.358 377.622 C 337.358 377.622 337.196 380.712 335.085 381.539 C 332.974 382.367 326.903 382.982 329.113 385.034 C 330.379 386.213 336.513 385.651 338.238 385.686 C 339.962 385.72 341.561 386.532 342.881 385.408 C 344.327 384.172 343.088 377.78 343.088 377.78 C 343.088 377.78 341.57 378.518 340.232 378.447 C 338.31 378.344 337.358 377.622 337.358 377.622 Z" fill="#131F2D" style=""/>
  <path d="M 322.215 299.541 C 322.62 305.97 323.383 314.315 324.793 324.524 C 327.478 343.988 330.739 363.604 332.346 373.013 C 332.597 374.619 333.388 376.097 334.592 377.206 C 335.795 378.316 337.339 378.992 338.974 379.126 L 340.762 379.248 C 344.346 379.487 347.345 376.467 347.183 372.778 L 344.373 309.344 L 344.103 299.254 C 344.103 299.254 321.55 288.996 322.215 299.541 Z" fill="#364154" style=""/>
  <path d="M 357.135 378.159 C 357.135 378.159 356.973 381.249 354.862 382.073 C 352.752 382.899 346.68 383.517 348.89 385.571 C 350.156 386.748 356.282 386.19 358.015 386.223 C 359.739 386.257 361.338 387.07 362.649 385.942 C 364.096 384.706 362.856 378.314 362.856 378.314 C 362.856 378.314 361.347 379.053 360.009 378.982 C 358.077 378.879 357.135 378.159 357.135 378.159 Z" fill="#131F2D" style=""/>
  <path d="M 341.633 284.136 C 341.633 284.136 340.843 298.113 344.561 325.064 C 347.255 344.529 350.516 364.145 352.123 373.553 C 352.375 375.161 353.165 376.639 354.359 377.748 C 355.563 378.857 357.108 379.534 358.751 379.667 L 360.539 379.787 C 364.123 380.029 367.123 377.007 366.952 373.318 L 364.14 309.885 L 363.592 289.017 L 341.633 284.136 Z" fill="#364154" style=""/>
  <path d="M 345.45 330.551 L 345.18 330.514 C 345.18 330.4 346.716 318.943 347.866 314.831 C 349.016 310.719 354.359 307.108 354.422 307.06 L 354.575 307.286 C 354.53 307.32 349.267 310.849 348.136 314.902 C 347.004 318.956 345.45 330.437 345.45 330.551 Z" fill="#131F2D" style=""/>
  <path d="M 345.513 241.172 L 344.13 236.991 L 343.726 235.774 L 341.346 228.616 L 341.032 235.722 L 340.843 239.998 L 340.789 241.35 C 340.744 242.278 340.142 242.46 339.414 243.261 C 339.119 243.569 337.232 245.543 339.378 246.428 C 342.055 247.533 347.057 245.862 348.962 243.671 C 348.944 243.681 345.962 242.525 345.513 241.172 Z" fill="#FF7955" style=""/>
  <path d="M 348.342 232.518 C 349.151 228.353 346.806 224.408 343.105 223.709 C 339.414 223.01 335.768 225.819 334.96 229.987 C 334.16 234.153 336.496 238.098 340.196 238.797 C 343.887 239.496 347.533 236.685 348.342 232.518 Z" fill="#FF7955" style=""/>
  <path d="M 337.87 228.616 C 333.972 228.752 332.077 226.653 332.032 224.71 C 331.978 222.217 333.657 220.01 335.616 220.938 C 337.573 221.865 336.738 219.591 338.615 219.35 C 342.136 218.899 342.801 221.234 345.675 221.348 C 349.474 221.497 353.794 227.402 350.623 231.712 C 350.623 231.712 340.95 228.507 337.87 228.616 Z" fill="#131F2D" style=""/>
  <path d="M 334.394 226.1 C 334.394 226.1 338.561 229.841 338.013 231.949 C 337.466 234.056 337.6 234.879 340.034 236.002 C 342.468 237.127 340.322 238.947 343.564 239.093 C 346.806 239.237 350.776 235.65 350.776 229.774 C 350.758 227.79 350.049 225.874 348.755 224.354 L 334.394 226.1 Z" fill="#131F2D" style=""/>
  <path d="M 335.912 231.856 C 336.119 231.559 336.442 231.349 336.801 231.272 C 337.16 231.194 337.529 231.252 337.851 231.436 C 337.996 231.539 338.112 231.669 338.202 231.82 C 338.292 231.972 338.355 232.14 338.373 232.313 C 338.399 232.488 338.382 232.665 338.327 232.832 C 338.283 233 338.193 233.157 338.076 233.29 C 337.87 233.588 337.546 233.797 337.187 233.874 C 336.828 233.951 336.46 233.892 336.136 233.707 C 335.993 233.606 335.875 233.475 335.786 233.324 C 335.696 233.173 335.633 233.006 335.616 232.831 C 335.588 232.657 335.607 232.481 335.66 232.312 C 335.705 232.145 335.795 231.99 335.912 231.856 Z" fill="#FFB27D" style=""/>
  <path d="M 352.186 233.333 C 352.168 233.332 352.141 233.324 352.123 233.311 C 352.105 233.296 352.096 233.278 352.088 233.255 C 351.917 232.735 351.567 232.296 351.081 232.02 C 351.072 232.015 351.064 232.007 351.055 231.997 C 351.045 231.987 351.045 231.976 351.037 231.963 C 351.037 231.95 351.037 231.938 351.037 231.926 C 351.037 231.914 351.037 231.901 351.045 231.89 C 351.055 231.88 351.064 231.869 351.072 231.861 C 351.081 231.853 351.091 231.847 351.108 231.843 C 351.117 231.84 351.127 231.839 351.144 231.84 C 351.153 231.841 351.171 231.844 351.18 231.851 C 351.71 232.154 352.105 232.645 352.285 233.225 C 352.285 233.238 352.285 233.251 352.285 233.263 C 352.285 233.275 352.276 233.288 352.267 233.298 C 352.267 233.31 352.258 233.319 352.24 233.327 C 352.231 233.334 352.222 233.339 352.214 233.343 L 352.186 233.333 Z" fill="#131F2D" style=""/>
  <path d="M 351.135 231.569 C 351.108 231.569 351.081 231.56 351.064 231.543 C 351.045 231.526 351.037 231.503 351.037 231.479 C 351.037 231.466 351.037 231.455 351.037 231.442 C 351.045 231.43 351.045 231.42 351.055 231.41 C 351.064 231.4 351.081 231.393 351.091 231.387 C 351.1 231.381 351.108 231.378 351.127 231.378 C 351.127 231.378 352.186 231.306 352.339 230.547 C 352.347 230.521 352.366 230.499 352.384 230.484 C 352.402 230.471 352.429 230.464 352.456 230.469 C 352.482 230.474 352.501 230.489 352.518 230.511 C 352.536 230.532 352.536 230.557 352.536 230.583 C 352.347 231.489 351.189 231.565 351.135 231.569 Z" fill="#131F2D" style=""/>
  <path d="M 336.208 220.79 C 336.136 220.79 336.064 220.78 336.001 220.759 C 335.714 220.67 335.445 220.536 335.203 220.364 C 334.978 220.178 334.708 220.054 334.421 220.006 C 334.143 219.957 333.846 219.984 333.577 220.085 C 333.559 220.089 333.549 220.09 333.541 220.089 C 333.523 220.087 333.514 220.084 333.496 220.077 C 333.486 220.073 333.478 220.064 333.469 220.053 C 333.46 220.043 333.46 220.032 333.451 220.02 C 333.451 220.009 333.451 219.995 333.451 219.982 C 333.451 219.97 333.451 219.957 333.46 219.946 C 333.469 219.936 333.478 219.925 333.486 219.917 C 333.496 219.91 333.505 219.904 333.523 219.9 C 333.819 219.792 334.143 219.764 334.457 219.818 C 334.771 219.873 335.059 220.008 335.301 220.208 C 335.534 220.371 335.786 220.496 336.056 220.579 C 336.119 220.601 336.191 220.609 336.262 220.598 C 336.334 220.588 336.406 220.562 336.469 220.521 C 336.891 220.234 336.998 219.285 336.998 219.285 C 336.998 219.26 337.017 219.237 337.034 219.221 C 337.052 219.205 337.08 219.197 337.107 219.198 C 337.115 219.199 337.133 219.203 337.143 219.209 C 337.151 219.216 337.16 219.224 337.169 219.234 C 337.179 219.244 337.187 219.256 337.187 219.268 C 337.196 219.281 337.196 219.293 337.187 219.306 C 337.187 219.347 337.08 220.338 336.568 220.678 C 336.46 220.751 336.334 220.791 336.208 220.79 Z" fill="#131F2D" style=""/>
  <path d="M 345.378 221.039 C 344.462 220.999 343.582 220.656 342.881 220.064 C 342.873 220.055 342.863 220.045 342.854 220.034 C 342.846 220.022 342.846 220.01 342.837 219.996 C 342.837 219.982 342.837 219.969 342.846 219.956 C 342.846 219.944 342.854 219.932 342.863 219.921 C 342.873 219.912 342.881 219.904 342.899 219.898 C 342.909 219.893 342.926 219.889 342.935 219.889 C 342.953 219.889 342.962 219.892 342.98 219.898 C 342.989 219.904 342.998 219.912 343.008 219.921 C 343.008 219.921 344.301 221.043 345.791 220.817 C 345.818 220.813 345.845 220.821 345.863 220.834 C 345.89 220.85 345.899 220.873 345.908 220.898 C 345.908 220.923 345.899 220.949 345.89 220.969 C 345.873 220.99 345.845 221.005 345.818 221.009 C 345.675 221.029 345.531 221.04 345.378 221.039 Z" fill="#131F2D" style=""/>
  <path d="M 336.954 233.973 C 336.863 233.975 336.774 233.964 336.684 233.939 C 336.675 233.938 336.675 233.936 336.667 233.932 C 336.657 233.928 336.657 233.924 336.648 233.917 C 336.648 233.912 336.648 233.906 336.648 233.899 C 336.639 233.892 336.639 233.885 336.648 233.878 C 336.648 233.873 336.648 233.866 336.657 233.861 C 336.657 233.856 336.667 233.851 336.675 233.85 C 336.675 233.847 336.684 233.846 336.693 233.846 C 336.702 233.847 336.711 233.849 336.711 233.852 C 336.747 233.852 337.592 234.115 338.193 233.003 C 338.193 232.996 338.202 232.993 338.202 232.988 C 338.211 232.985 338.211 232.982 338.22 232.98 C 338.229 232.978 338.229 232.977 338.238 232.978 C 338.247 232.979 338.247 232.981 338.256 232.985 C 338.265 232.99 338.274 232.999 338.274 233.011 C 338.283 233.023 338.283 233.035 338.274 233.046 C 337.843 233.841 337.286 233.973 336.954 233.973 Z" fill="#131F2D" style=""/>
  <path d="M 322.215 299.541 C 322.215 299.541 350.497 297.996 363.916 301.237 L 364.123 297.394 L 345.298 291.816 L 330.101 292.19 L 325.44 293.191 L 322.143 298.305 L 322.215 299.541 Z" fill="#131F2D" style=""/>
  <path d="M 361.41 252.731 C 361.41 252.731 358.913 241.978 343.69 241.978 C 317.149 241.978 324.596 263.72 322.143 298.289 C 322.143 298.289 339.253 294.563 364.005 299.525 C 364.005 299.525 366.422 280.805 363.305 264.98 C 362.478 260.796 362.623 256.363 361.41 252.731 Z" fill="#00A3FE" style=""/>
  <path d="M 340.636 241.978 C 340.636 241.978 332.121 242.101 325.79 248.104 C 319.467 254.108 311.312 262.373 309.578 267.128 C 307.45 272.998 311.375 278.868 316.35 278.986 C 321.326 279.103 325.79 275.485 325.79 275.485 L 340.636 241.978 Z" fill="#00A3FE" style=""/>
  <path d="M 364.814 291.088 L 364.625 291.088 C 365.362 277.526 362.973 263.645 362.946 263.506 L 363.135 263.475 C 363.143 263.605 365.541 277.509 364.814 291.088 Z" fill="#131F2D" style=""/>
  <path d="M 322.844 277.434 L 322.746 277.277 C 327.748 274.311 334.259 266.503 334.322 266.423 L 334.466 266.543 C 334.403 266.621 327.874 274.456 322.844 277.434 Z" fill="#131F2D" style=""/>
  <path d="M 288.104 263.481 C 288.041 267.316 307.234 281.331 318.748 278.989 C 330.99 276.517 315.883 263.028 315.883 263.028 L 293.322 257.889 C 293.322 257.889 288.167 259.598 288.104 263.481 Z" fill="#00A3FE" style=""/>
  <path d="M 293.322 257.889 C 293.385 257.443 293.34 256.988 293.179 256.565 C 293.026 256.141 292.765 255.762 292.433 255.459 C 291.274 254.448 290.07 249.841 289.307 250.997 C 288.553 252.152 289.254 255.829 288.104 256.224 C 286.954 256.619 293.322 257.889 293.322 257.889 Z" fill="#FF7955" style=""/>
  <path d="M 301.764 175.956 L 300.633 175.956 C 300.48 175.956 300.336 176.014 300.238 176.117 C 300.13 176.22 300.076 176.359 300.076 176.506 L 300.076 181.449 C 300.076 181.596 300.013 181.737 299.906 181.84 C 299.807 181.943 299.663 182.003 299.51 182.003 L 299.115 182.003 C 298.962 182.002 298.827 181.942 298.72 181.84 C 298.621 181.736 298.558 181.595 298.558 181.449 L 298.558 176.506 C 298.558 176.359 298.495 176.22 298.397 176.117 C 298.288 176.014 298.145 175.956 298.001 175.956 L 296.897 175.956 C 296.744 175.956 296.6 175.898 296.501 175.794 C 296.394 175.69 296.331 175.549 296.331 175.403 L 296.331 175.295 C 296.331 175.149 296.394 175.008 296.501 174.903 C 296.6 174.799 296.744 174.742 296.897 174.742 L 301.764 174.742 C 301.917 174.742 302.052 174.799 302.16 174.903 C 302.267 175.008 302.322 175.149 302.322 175.295 L 302.322 175.403 C 302.322 175.549 302.267 175.69 302.16 175.794 C 302.052 175.898 301.917 175.956 301.764 175.956 Z" fill="#00A3FE" style=""/>
  <path d="M 307.037 178.85 L 305.24 178.85 C 305.097 178.85 304.953 178.909 304.854 179.012 C 304.747 179.115 304.692 179.256 304.692 179.401 L 304.692 180.244 C 304.692 180.391 304.747 180.531 304.854 180.634 C 304.953 180.738 305.097 180.797 305.24 180.797 L 307.54 180.797 C 307.612 180.797 307.692 180.812 307.755 180.84 C 307.827 180.867 307.881 180.908 307.935 180.959 C 307.989 181.011 308.033 181.072 308.061 181.139 C 308.088 181.206 308.096 181.279 308.096 181.35 L 308.096 181.449 C 308.096 181.522 308.088 181.594 308.061 181.661 C 308.033 181.728 307.989 181.789 307.935 181.84 C 307.881 181.892 307.827 181.932 307.755 181.961 C 307.692 181.988 307.612 182.003 307.54 182.003 L 303.731 182.003 C 303.588 182.003 303.444 181.944 303.336 181.84 C 303.228 181.737 303.175 181.596 303.175 181.449 L 303.175 175.27 C 303.175 175.123 303.228 174.983 303.336 174.879 C 303.444 174.775 303.588 174.717 303.731 174.717 L 307.53 174.717 C 307.683 174.718 307.818 174.776 307.926 174.881 C 308.033 174.984 308.088 175.124 308.088 175.27 L 308.088 175.379 C 308.088 175.524 308.033 175.664 307.926 175.769 C 307.818 175.871 307.683 175.93 307.53 175.931 L 305.24 175.931 C 305.097 175.931 304.953 175.989 304.854 176.092 C 304.747 176.196 304.692 176.336 304.692 176.482 L 304.692 177.099 C 304.692 177.245 304.747 177.385 304.854 177.49 C 304.953 177.593 305.097 177.652 305.24 177.652 L 307.037 177.652 C 307.18 177.652 307.324 177.71 307.432 177.813 C 307.54 177.917 307.593 178.056 307.593 178.202 L 307.593 178.273 C 307.603 178.348 307.584 178.422 307.557 178.492 C 307.53 178.562 307.494 178.626 307.441 178.68 C 307.387 178.734 307.324 178.777 307.252 178.807 C 307.189 178.837 307.108 178.851 307.037 178.85 Z" fill="#00A3FE" style=""/>
  <path d="M 312.811 180.092 C 312.811 179.977 312.794 179.86 312.758 179.75 C 312.713 179.639 312.641 179.542 312.542 179.469 C 312.407 179.365 312.255 179.28 312.102 179.215 C 311.869 179.113 311.626 179.024 311.375 178.949 C 311.06 178.848 310.746 178.729 310.441 178.591 C 310.163 178.469 309.893 178.31 309.659 178.119 C 309.444 177.949 309.264 177.738 309.129 177.501 C 308.994 177.243 308.931 176.959 308.931 176.671 C 308.931 176.383 308.994 176.099 309.129 175.841 C 309.264 175.588 309.453 175.367 309.687 175.199 C 309.946 175.013 310.234 174.872 310.54 174.785 C 310.898 174.686 311.267 174.636 311.635 174.639 C 312.012 174.635 312.39 174.691 312.748 174.807 C 313.064 174.906 313.35 175.064 313.602 175.273 C 313.835 175.468 314.016 175.71 314.141 175.984 C 314.177 176.043 314.195 176.101 314.222 176.16 C 314.248 176.242 314.258 176.331 314.24 176.418 C 314.231 176.504 314.195 176.586 314.141 176.657 C 314.087 176.728 314.024 176.785 313.943 176.825 C 313.862 176.865 313.772 176.885 313.692 176.885 L 313.279 176.885 C 313.162 176.884 313.054 176.848 312.955 176.779 C 312.857 176.711 312.784 176.614 312.748 176.503 C 312.748 176.503 312.748 176.475 312.748 176.462 C 312.704 176.335 312.623 176.22 312.524 176.126 C 312.417 176.029 312.291 175.955 312.147 175.909 C 311.977 175.854 311.796 175.828 311.608 175.833 C 311.438 175.83 311.258 175.851 311.096 175.898 C 310.961 175.935 310.835 175.995 310.728 176.076 C 310.639 176.148 310.566 176.241 310.513 176.348 C 310.468 176.451 310.441 176.562 310.441 176.676 C 310.441 176.802 310.477 176.926 310.54 177.035 C 310.602 177.143 310.701 177.233 310.809 177.294 C 311.151 177.494 311.518 177.646 311.895 177.745 C 312.264 177.854 312.614 177.991 312.955 178.155 C 313.234 178.286 313.494 178.458 313.719 178.666 C 313.917 178.845 314.069 179.064 314.186 179.305 C 314.294 179.559 314.338 179.833 314.338 180.109 C 314.347 180.404 314.275 180.696 314.149 180.96 C 314.024 181.206 313.835 181.417 313.611 181.579 C 313.359 181.76 313.072 181.893 312.767 181.971 C 312.417 182.068 312.04 182.114 311.671 182.11 C 311.429 182.11 311.186 182.089 310.943 182.048 C 310.71 182.007 310.477 181.942 310.252 181.854 C 310.028 181.775 309.821 181.672 309.623 181.546 C 309.444 181.417 309.273 181.263 309.129 181.088 C 308.994 180.905 308.878 180.701 308.806 180.485 L 308.806 180.451 C 308.779 180.369 308.77 180.281 308.788 180.196 C 308.797 180.111 308.833 180.03 308.887 179.96 C 308.941 179.89 309.013 179.834 309.084 179.795 C 309.165 179.757 309.255 179.737 309.336 179.738 L 309.731 179.738 C 309.847 179.738 309.965 179.778 310.064 179.85 C 310.163 179.923 310.234 180.026 310.27 180.143 C 310.279 180.195 310.297 180.247 310.324 180.297 C 310.387 180.443 310.485 180.572 310.611 180.67 C 310.755 180.768 310.907 180.839 311.078 180.878 C 311.267 180.923 311.465 180.945 311.671 180.943 C 311.842 180.945 312.012 180.925 312.183 180.881 C 312.309 180.846 312.426 180.787 312.533 180.708 C 312.632 180.638 312.704 180.549 312.748 180.444 C 312.794 180.334 312.821 180.213 312.811 180.092 Z" fill="#00A3FE" style=""/>
  <path d="M 320.329 175.956 L 319.197 175.956 C 319.045 175.956 318.901 176.014 318.802 176.117 C 318.695 176.22 318.64 176.359 318.64 176.506 L 318.64 181.449 C 318.64 181.596 318.577 181.737 318.47 181.84 C 318.371 181.944 318.227 182.003 318.075 182.003 L 317.68 182.003 C 317.536 182.002 317.393 181.942 317.284 181.84 C 317.185 181.736 317.123 181.596 317.123 181.449 L 317.123 176.506 C 317.123 176.359 317.06 176.22 316.961 176.117 C 316.854 176.014 316.71 175.956 316.566 175.956 L 315.47 175.956 C 315.318 175.955 315.183 175.897 315.075 175.793 C 314.967 175.689 314.913 175.549 314.913 175.403 L 314.913 175.295 C 314.913 175.22 314.922 175.147 314.949 175.077 C 314.976 175.008 315.012 174.945 315.066 174.891 C 315.12 174.837 315.183 174.794 315.255 174.764 C 315.318 174.735 315.389 174.721 315.47 174.721 L 320.338 174.721 C 320.49 174.721 320.635 174.778 320.734 174.882 C 320.841 174.986 320.895 175.127 320.895 175.273 L 320.895 175.381 C 320.904 175.457 320.886 175.532 320.859 175.602 C 320.832 175.673 320.796 175.737 320.742 175.79 C 320.688 175.844 320.625 175.886 320.553 175.915 C 320.482 175.943 320.41 175.958 320.329 175.956 Z" fill="#00A3FE" style=""/>
  <path d="M 322.808 182.003 L 322.403 182.003 C 322.26 182.002 322.116 181.942 322.009 181.84 C 321.91 181.736 321.847 181.596 321.847 181.449 L 321.847 175.27 C 321.847 175.124 321.91 174.984 322.009 174.881 C 322.116 174.776 322.26 174.718 322.403 174.717 L 322.808 174.717 C 322.952 174.717 323.096 174.775 323.203 174.879 C 323.302 174.983 323.365 175.123 323.365 175.27 L 323.365 181.449 C 323.365 181.596 323.302 181.737 323.203 181.84 C 323.096 181.944 322.952 182.003 322.808 182.003 Z" fill="#00A3FE" style=""/>
  <path d="M 330.182 182.003 L 329.544 182.003 C 329.445 182.003 329.346 181.977 329.266 181.931 C 329.184 181.885 329.113 181.817 329.068 181.737 L 327.317 178.894 C 327.254 178.793 327.155 178.714 327.038 178.671 C 326.93 178.627 326.805 178.621 326.688 178.654 C 326.571 178.686 326.473 178.755 326.391 178.85 C 326.319 178.946 326.284 179.062 326.284 179.182 L 326.284 181.449 C 326.284 181.596 326.22 181.737 326.113 181.84 C 326.014 181.944 325.87 182.003 325.718 182.003 L 325.323 182.003 C 325.179 182.003 325.036 181.944 324.927 181.84 C 324.819 181.737 324.766 181.596 324.766 181.449 L 324.766 175.27 C 324.766 175.123 324.819 174.983 324.927 174.879 C 325.036 174.775 325.179 174.717 325.323 174.717 L 325.969 174.717 C 326.06 174.718 326.158 174.742 326.239 174.788 C 326.319 174.835 326.391 174.902 326.445 174.983 L 328.196 177.831 C 328.259 177.934 328.358 178.015 328.466 178.058 C 328.583 178.102 328.708 178.11 328.826 178.078 C 328.942 178.046 329.041 177.976 329.121 177.88 C 329.194 177.785 329.23 177.667 329.23 177.547 L 329.23 175.27 C 329.23 175.124 329.292 174.984 329.401 174.881 C 329.5 174.776 329.643 174.718 329.787 174.717 L 330.182 174.717 C 330.334 174.717 330.478 174.775 330.577 174.879 C 330.684 174.983 330.739 175.123 330.739 175.27 L 330.739 181.449 C 330.739 181.596 330.684 181.737 330.577 181.84 C 330.478 181.944 330.334 182.003 330.182 182.003 Z" fill="#00A3FE" style=""/>
  <path d="M 337.879 180.86 C 337.879 180.936 337.861 181.013 337.834 181.085 C 337.798 181.155 337.753 181.219 337.69 181.27 C 337.645 181.317 337.583 181.365 337.52 181.416 C 337.349 181.546 337.151 181.655 336.954 181.742 C 336.693 181.855 336.424 181.941 336.145 181.999 C 335.786 182.07 335.427 182.105 335.068 182.101 C 334.628 182.106 334.179 182.028 333.766 181.869 C 333.388 181.72 333.038 181.486 332.759 181.187 C 332.472 180.866 332.247 180.491 332.113 180.083 C 331.951 179.6 331.87 179.094 331.879 178.584 L 331.879 178.155 C 331.87 177.646 331.951 177.14 332.104 176.654 C 332.239 176.247 332.445 175.87 332.732 175.547 C 332.993 175.25 333.325 175.016 333.703 174.865 C 334.107 174.704 334.537 174.625 334.969 174.63 C 335.391 174.621 335.813 174.68 336.218 174.807 C 336.541 174.91 336.837 175.079 337.088 175.304 C 337.322 175.517 337.51 175.777 337.636 176.067 C 337.672 176.148 337.708 176.231 337.735 176.317 C 337.762 176.401 337.771 176.489 337.753 176.575 C 337.744 176.661 337.708 176.743 337.655 176.815 C 337.6 176.885 337.537 176.944 337.457 176.982 C 337.375 177.022 337.295 177.043 337.205 177.043 L 336.855 177.043 C 336.738 177.043 336.621 177.004 336.522 176.936 C 336.433 176.867 336.361 176.77 336.325 176.66 L 336.28 176.546 C 336.218 176.402 336.128 176.272 336.02 176.165 C 335.903 176.057 335.759 175.973 335.607 175.922 C 335.418 175.863 335.22 175.834 335.022 175.838 C 334.79 175.827 334.565 175.874 334.358 175.975 C 334.152 176.077 333.972 176.229 333.846 176.42 C 333.541 176.943 333.397 177.544 333.433 178.146 L 333.433 178.584 C 333.397 179.193 333.549 179.797 333.882 180.312 C 334.025 180.503 334.215 180.658 334.439 180.76 C 334.655 180.861 334.897 180.91 335.14 180.899 C 335.301 180.902 335.462 180.891 335.616 180.865 C 335.732 180.847 335.849 180.818 335.966 180.778 C 336.046 180.748 336.128 180.71 336.199 180.665 C 336.262 180.628 336.307 180.587 336.361 180.54 L 336.361 179.84 C 336.361 179.693 336.298 179.553 336.199 179.449 C 336.092 179.344 335.948 179.287 335.804 179.287 L 335.534 179.287 C 335.391 179.287 335.247 179.229 335.148 179.126 C 335.041 179.022 334.978 178.882 334.978 178.737 C 334.978 178.59 335.041 178.449 335.14 178.346 C 335.247 178.241 335.391 178.184 335.534 178.184 L 337.331 178.184 C 337.402 178.184 337.474 178.198 337.537 178.225 C 337.609 178.253 337.672 178.294 337.726 178.346 C 337.771 178.397 337.816 178.458 337.843 178.525 C 337.87 178.592 337.887 178.664 337.887 178.737 L 337.879 180.86 Z" fill="#00A3FE" style=""/>
</svg>